<?xml version="1.0" encoding="utf-8"?>
<svg xmlns="http://www.w3.org/2000/svg" viewBox="0 0 48 48" width="144" height="144">
  <path d="M11 4 A 2.0002 2.0002 0 1 0 11 8L37 8 A 2.0002 2.0002 0 1 0 37 4L11 4 z M 10.5 10 A 1.5 1.5 0 0 0 10.5 13 A 1.5 1.5 0 0 0 10.5 10 z M 23.970703 10 A 2.0002 2.0002 0 0 0 22.585938 10.585938L17.585938 15.585938 A 2.0002 2.0002 0 1 0 20.414062 18.414062L22 16.828125L22 31.171875L20.414062 29.585938 A 2.0002 2.0002 0 1 0 17.585938 32.414062L22.585938 37.414062 A 2.0002 2.0002 0 0 0 25.414062 37.414062L30.414062 32.414062 A 2.0002 2.0002 0 1 0 27.585938 29.585938L26 31.171875L26 16.828125L27.585938 18.414062 A 2.0002 2.0002 0 1 0 30.414062 15.585938L25.414062 10.585938 A 2.0002 2.0002 0 0 0 23.970703 10 z M 37.5 10 A 1.5 1.5 0 0 0 37.5 13 A 1.5 1.5 0 0 0 37.5 10 z M 10.5 15 A 1.5 1.5 0 0 0 10.5 18 A 1.5 1.5 0 0 0 10.5 15 z M 37.5 15 A 1.5 1.5 0 0 0 37.5 18 A 1.5 1.5 0 0 0 37.5 15 z M 10.5 20 A 1.5 1.5 0 0 0 10.5 23 A 1.5 1.5 0 0 0 10.5 20 z M 37.5 20 A 1.5 1.5 0 0 0 37.5 23 A 1.5 1.5 0 0 0 37.5 20 z M 10.5 25 A 1.5 1.5 0 0 0 10.5 28 A 1.5 1.5 0 0 0 10.5 25 z M 37.5 25 A 1.5 1.5 0 0 0 37.5 28 A 1.5 1.5 0 0 0 37.5 25 z M 10.5 30 A 1.5 1.5 0 0 0 10.5 33 A 1.5 1.5 0 0 0 10.5 30 z M 37.5 30 A 1.5 1.5 0 0 0 37.5 33 A 1.5 1.5 0 0 0 37.5 30 z M 10.5 35 A 1.5 1.5 0 0 0 10.5 38 A 1.5 1.5 0 0 0 10.5 35 z M 37.5 35 A 1.5 1.5 0 0 0 37.5 38 A 1.5 1.5 0 0 0 37.5 35 z M 11 40 A 2.0002 2.0002 0 1 0 11 44L37 44 A 2.0002 2.0002 0 1 0 37 40L11 40 z" fill="#3B3B3B" />
</svg>