<?xml version="1.0" encoding="utf-8"?>
<svg xmlns="http://www.w3.org/2000/svg" viewBox="0 0 48 48" width="144" height="144">
  <path d="M9 7 A 2.0002 2.0002 0 1 0 9 11L39 11 A 2.0002 2.0002 0 1 0 39 7L9 7 z M 9 12.5 A 1.5 1.5 0 0 0 9 15.5 A 1.5 1.5 0 0 0 9 12.5 z M 24 12.5 A 1.5 1.5 0 0 0 24 15.5 A 1.5 1.5 0 0 0 24 12.5 z M 39 12.5 A 1.5 1.5 0 0 0 39 15.5 A 1.5 1.5 0 0 0 39 12.5 z M 9 17.5 A 1.5 1.5 0 0 0 9 20.5 A 1.5 1.5 0 0 0 9 17.5 z M 24 17.5 A 1.5 1.5 0 0 0 24 20.5 A 1.5 1.5 0 0 0 24 17.5 z M 39 17.5 A 1.5 1.5 0 0 0 39 20.5 A 1.5 1.5 0 0 0 39 17.5 z M 9 22.5 A 1.5 1.5 0 0 0 9 25.5 A 1.5 1.5 0 0 0 9 22.5 z M 14 22.5 A 1.5 1.5 0 0 0 14 25.5 A 1.5 1.5 0 0 0 14 22.5 z M 19 22.5 A 1.5 1.5 0 0 0 19 25.5 A 1.5 1.5 0 0 0 19 22.5 z M 24 22.5 A 1.5 1.5 0 0 0 24 25.5 A 1.5 1.5 0 0 0 24 22.5 z M 29 22.5 A 1.5 1.5 0 0 0 29 25.5 A 1.5 1.5 0 0 0 29 22.5 z M 34 22.5 A 1.5 1.5 0 0 0 34 25.5 A 1.5 1.5 0 0 0 34 22.5 z M 39 22.5 A 1.5 1.5 0 0 0 39 25.5 A 1.5 1.5 0 0 0 39 22.5 z M 9 27.5 A 1.5 1.5 0 0 0 9 30.5 A 1.5 1.5 0 0 0 9 27.5 z M 24 27.5 A 1.5 1.5 0 0 0 24 30.5 A 1.5 1.5 0 0 0 24 27.5 z M 39 27.5 A 1.5 1.5 0 0 0 39 30.5 A 1.5 1.5 0 0 0 39 27.5 z M 9 32.5 A 1.5 1.5 0 0 0 9 35.5 A 1.5 1.5 0 0 0 9 32.5 z M 24 32.5 A 1.5 1.5 0 0 0 24 35.5 A 1.5 1.5 0 0 0 24 32.5 z M 39 32.5 A 1.5 1.5 0 0 0 39 35.5 A 1.5 1.5 0 0 0 39 32.5 z M 9 37.5 A 1.5 1.5 0 0 0 9 40.5 A 1.5 1.5 0 0 0 9 37.5 z M 14 37.5 A 1.5 1.5 0 0 0 14 40.5 A 1.5 1.5 0 0 0 14 37.5 z M 19 37.5 A 1.5 1.5 0 0 0 19 40.5 A 1.5 1.5 0 0 0 19 37.5 z M 24 37.5 A 1.5 1.5 0 0 0 24 40.5 A 1.5 1.5 0 0 0 24 37.5 z M 29 37.5 A 1.5 1.5 0 0 0 29 40.5 A 1.5 1.5 0 0 0 29 37.5 z M 34 37.5 A 1.5 1.5 0 0 0 34 40.5 A 1.5 1.5 0 0 0 34 37.5 z M 39 37.5 A 1.5 1.5 0 0 0 39 40.5 A 1.5 1.5 0 0 0 39 37.5 z" fill="#3B3B3B" />
</svg>