<?xml version="1.0" encoding="utf-8"?>
<svg xmlns="http://www.w3.org/2000/svg" viewBox="0 0 48 48" width="144" height="144">
  <path d="M12.5 4C10.019 4 8 6.019 8 8.5L8 39.5C8 41.981 10.019 44 12.5 44L25.632812 44C23.386813 41.664 22 38.496 22 35C22 27.82 27.82 22 35 22C36.772 22 38.46 22.357 40 23L40 20L28.5 20C26.019 20 24 17.981 24 15.5L24 4L12.5 4 z M 27 4.8789062L27 15.5C27 16.327 27.673 17 28.5 17L39.121094 17L27 4.8789062 z M 35 24C28.925 24 24 28.925 24 35C24 41.075 28.925 46 35 46C41.075 46 46 41.075 46 35C46 28.925 41.075 24 35 24 z M 35 27C36.1 27 37.115109 27.508484 37.787109 28.396484C38.120109 28.836484 38.032797 29.465828 37.591797 29.798828C37.149797 30.131828 36.524406 30.044516 36.191406 29.603516C35.901406 29.220516 35.467 29 35 29C34.173 29 33.5 29.673 33.5 30.5L33.5 32L38 32C39.105 32 40 32.895 40 34L40 39C40 40.105 39.105 41 38 41L32 41C30.895 41 30 40.105 30 39L30 34C30 33.069 30.639 32.293312 31.5 32.070312L31.5 30.5C31.5 28.57 33.07 27 35 27 z" fill="#3B3B3B" />
</svg>