<?xml version="1.0" encoding="utf-8"?>
<svg xmlns="http://www.w3.org/2000/svg" viewBox="0 0 48 48" width="144" height="144">
  <path d="M7.5761719 10.384766C4.5431719 10.384766 2.0761719 12.851766 2.0761719 15.884766L2.0761719 26.884766C2.0761719 29.917766 4.5431719 32.384766 7.5761719 32.384766L11.128906 32.384766C11.103906 32.053766 11.076172 31.722766 11.076172 31.384766C11.076172 24.216766 16.908172 18.384766 24.076172 18.384766C31.244172 18.384766 37.076172 24.216766 37.076172 31.384766C37.076172 31.722766 37.051391 32.053766 37.025391 32.384766L40.576172 32.384766C43.609172 32.384766 46.076172 29.917766 46.076172 26.884766L46.076172 15.884766C46.076172 12.851766 43.609172 10.384766 40.576172 10.384766L7.5761719 10.384766 z M 24 20C17.925 20 13 24.925 13 31C13 37.075 17.925 42 24 42C30.075 42 35 37.075 35 31C35 24.925 30.075 20 24 20 z M 24 23C24.552 23 25 23.448 25 24L25 30L31 30C31.552 30 32 30.448 32 31C32 31.552 31.552 32 31 32L25 32L25 38C25 38.552 24.552 39 24 39C23.448 39 23 38.552 23 38L23 32L17 32C16.448 32 16 31.552 16 31C16 30.448 16.448 30 17 30L23 30L23 24C23 23.448 23.448 23 24 23 z" fill="#3B3B3B" />
</svg>