<?xml version="1.0" encoding="utf-8"?>
<svg xmlns="http://www.w3.org/2000/svg" viewBox="0 0 48 48" width="144" height="144">
  <path d="M11.5 6C8.4802259 6 6 8.4802259 6 11.5 A 1.50015 1.50015 0 1 0 9 11.5C9 10.101774 10.101774 9 11.5 9 A 1.50015 1.50015 0 1 0 11.5 6 z M 17.5 6 A 1.50015 1.50015 0 1 0 17.5 9L20.5 9 A 1.50015 1.50015 0 1 0 20.5 6L17.5 6 z M 26.5 6 A 1.50015 1.50015 0 1 0 26.5 9L29.5 9 A 1.50015 1.50015 0 1 0 29.5 6L26.5 6 z M 35.5 6 A 1.50015 1.50015 0 1 0 35.5 9C36.898226 9 38 10.101774 38 11.5 A 1.50015 1.50015 0 1 0 41 11.5C41 8.4802259 38.519774 6 35.5 6 z M 13 12C12.448 12 12 12.448 12 13L12 34C12 34.552 12.448 35 13 35L23 35L23 31.240234C21.795 30.431234 21 29.056 21 27.5C21 25.019 23.019 23 25.5 23L27.537109 23C28.229109 21.806 29.522 21 31 21L35 21L35 13C35 12.448 34.552 12 34 12L13 12 z M 7.4765625 15.978516 A 1.50015 1.50015 0 0 0 6 17.5L6 20.5 A 1.50015 1.50015 0 1 0 9 20.5L9 17.5 A 1.50015 1.50015 0 0 0 7.4765625 15.978516 z M 39.476562 15.978516 A 1.50015 1.50015 0 0 0 38 17.5L38 20.5 A 1.50015 1.50015 0 1 0 41 20.5L41 17.5 A 1.50015 1.50015 0 0 0 39.476562 15.978516 z M 31 24C30.448 24 30 24.448 30 25L30 26L25.5 26 A 1.50015 1.50015 0 1 0 25.5 29L26 29L26 40.5C26 42.43 27.57 44 29.5 44L37.5 44C39.43 44 41 42.43 41 40.5L41 29L41.5 29 A 1.50015 1.50015 0 1 0 41.5 26L37 26L37 25C37 24.448 36.552 24 36 24L31 24 z M 7.4765625 24.978516 A 1.50015 1.50015 0 0 0 6 26.5L6 29.5 A 1.50015 1.50015 0 1 0 9 29.5L9 26.5 A 1.50015 1.50015 0 0 0 7.4765625 24.978516 z M 7.4765625 33.978516 A 1.50015 1.50015 0 0 0 6 35.5C6 38.519774 8.4802259 41 11.5 41 A 1.50015 1.50015 0 1 0 11.5 38C10.101774 38 9 36.898226 9 35.5 A 1.50015 1.50015 0 0 0 7.4765625 33.978516 z M 17.5 38 A 1.50015 1.50015 0 1 0 17.5 41L20.5 41 A 1.50015 1.50015 0 1 0 20.5 38L17.5 38 z" fill="#3B3B3B" />
</svg>