<?xml version="1.0" encoding="utf-8"?>
<svg xmlns="http://www.w3.org/2000/svg" viewBox="0 0 48 48" width="144" height="144">
  <path d="M34.5,3h-21C11.019,3,9,5.019,9,7.5v33c0,2.481,2.019,4.5,4.5,4.5h21c2.481,0,4.5-2.019,4.5-4.5v-33C39,5.019,36.981,3,34.5,3z M35,39.5c0,0.512-0.261,0.988-0.691,1.264C34.063,40.92,33.782,41,33.5,41c-0.214,0-0.429-0.046-0.629-0.138l-6.5-3c-0.752-0.348-1.08-1.238-0.733-1.991c0.348-0.751,1.235-1.081,1.991-0.733l1.592,0.735L16,13.319V15.5c0,0.828-0.672,1.5-1.5,1.5S13,16.328,13,15.5v-7c0-0.512,0.261-0.988,0.691-1.264c0.43-0.275,0.972-0.313,1.438-0.099l6.5,3c0.752,0.348,1.08,1.238,0.733,1.991c-0.349,0.75-1.236,1.08-1.991,0.733l-1.592-0.735L32,34.681V32.5c0-0.828,0.672-1.5,1.5-1.5s1.5,0.672,1.5,1.5V39.5z" fill="#3B3B3B" />
</svg>