<?xml version="1.0" encoding="utf-8"?>
<svg xmlns="http://www.w3.org/2000/svg" viewBox="0 0 48 48" width="144" height="144">
  <path d="M7.5 8C4.467 8 2 10.467 2 13.5L2 24.5C2 27.533 4.467 30 7.5 30L11.050781 30C11.024781 29.669 11 29.338 11 29C11 21.832 16.832 16 24 16C31.168 16 37 21.832 37 29C37 29.338 36.975219 29.669 36.949219 30L40.5 30C43.533 30 46 27.533 46 24.5L46 13.5C46 10.467 43.533 8 40.5 8L7.5 8 z M 24 18C17.925 18 13 22.925 13 29C13 35.075 17.925 40 24 40C30.075 40 35 35.075 35 29C35 22.925 30.075 18 24 18 z M 17 28L31 28C31.552 28 32 28.448 32 29C32 29.552 31.552 30 31 30L17 30C16.448 30 16 29.552 16 29C16 28.448 16.448 28 17 28 z" fill="#3B3B3B" />
</svg>