<?xml version="1.0" encoding="utf-8"?>
<svg xmlns="http://www.w3.org/2000/svg" viewBox="0 0 48 48" width="144" height="144">
  <path d="M5.9707031 8.9726562 A 2.0002 2.0002 0 0 0 4 11L4 37 A 2.0002 2.0002 0 1 0 8 37L8 11 A 2.0002 2.0002 0 0 0 5.9707031 8.9726562 z M 41.970703 8.9726562 A 2.0002 2.0002 0 0 0 40 11L40 37 A 2.0002 2.0002 0 1 0 44 37L44 11 A 2.0002 2.0002 0 0 0 41.970703 8.9726562 z M 11.5 9 A 1.5 1.5 0 0 0 11.5 12 A 1.5 1.5 0 0 0 11.5 9 z M 16.5 9 A 1.5 1.5 0 0 0 16.5 12 A 1.5 1.5 0 0 0 16.5 9 z M 21.5 9 A 1.5 1.5 0 0 0 21.5 12 A 1.5 1.5 0 0 0 21.5 9 z M 26.5 9 A 1.5 1.5 0 0 0 26.5 12 A 1.5 1.5 0 0 0 26.5 9 z M 31.5 9 A 1.5 1.5 0 0 0 31.5 12 A 1.5 1.5 0 0 0 31.5 9 z M 36.5 9 A 1.5 1.5 0 0 0 36.5 12 A 1.5 1.5 0 0 0 36.5 9 z M 30.982422 16.970703 A 2.0002 2.0002 0 0 0 29.585938 20.414062L31.171875 22L16.828125 22L18.414062 20.414062 A 2.0002 2.0002 0 0 0 16.960938 16.980469 A 2.0002 2.0002 0 0 0 15.585938 17.585938L10.585938 22.585938 A 2.0002 2.0002 0 0 0 10.585938 25.414062L15.585938 30.414062 A 2.0002 2.0002 0 1 0 18.414062 27.585938L16.828125 26L31.171875 26L29.585938 27.585938 A 2.0002 2.0002 0 1 0 32.414062 30.414062L37.414062 25.414062 A 2.0002 2.0002 0 0 0 37.414062 22.585938L32.414062 17.585938 A 2.0002 2.0002 0 0 0 30.982422 16.970703 z M 11.5 36 A 1.5 1.5 0 0 0 11.5 39 A 1.5 1.5 0 0 0 11.5 36 z M 16.5 36 A 1.5 1.5 0 0 0 16.5 39 A 1.5 1.5 0 0 0 16.5 36 z M 21.5 36 A 1.5 1.5 0 0 0 21.5 39 A 1.5 1.5 0 0 0 21.5 36 z M 26.5 36 A 1.5 1.5 0 0 0 26.5 39 A 1.5 1.5 0 0 0 26.5 36 z M 31.5 36 A 1.5 1.5 0 0 0 31.5 39 A 1.5 1.5 0 0 0 31.5 36 z M 36.5 36 A 1.5 1.5 0 0 0 36.5 39 A 1.5 1.5 0 0 0 36.5 36 z" fill="#3B3B3B" />
</svg>