<?xml version="1.0" encoding="utf-8"?>
<svg xmlns="http://www.w3.org/2000/svg" viewBox="0 0 48 48" width="144" height="144">
  <path d="M9.5 7C6.467 7 4 9.468 4 12.5L4 20.5C4 23.012 5.695 25.131109 8 25.787109L8 21.5C8 17.364 11.364 14 15.5 14L38 14L38 12.5C38 9.468 35.533 7 32.5 7L9.5 7 z M 15.5 16C12.467 16 10 18.468 10 21.5L10 29.5C10 32.532 12.467 35 15.5 35L22 35C22 27.82 27.82 22 35 22C38.496 22 41.664 23.386813 44 25.632812L44 21.5C44 18.468 41.533 16 38.5 16L15.5 16 z M 35 24C28.925 24 24 28.925 24 35C24 41.075 28.925 46 35 46C41.075 46 46 41.075 46 35C46 28.925 41.075 24 35 24 z M 35 27C35.552 27 36 27.448 36 28L36 34L42 34C42.552 34 43 34.448 43 35C43 35.552 42.552 36 42 36L36 36L36 42C36 42.552 35.552 43 35 43C34.448 43 34 42.552 34 42L34 36L28 36C27.448 36 27 35.552 27 35C27 34.448 27.448 34 28 34L34 34L34 28C34 27.448 34.448 27 35 27 z" fill="#3B3B3B" />
</svg>