<?xml version="1.0" encoding="utf-8"?>
<svg xmlns="http://www.w3.org/2000/svg" viewBox="0 0 80 80" width="480" height="480">
  <path d="M31 8C16.65255 8 5 19.65255 5 34C5 48.34745 16.65255 60 31 60C32.692838 60 34.346128 59.831209 35.949219 59.521484C36.349124 60.618028 36.879119 61.648838 37.46875 62.638672L35.580078 67.361328L39.455078 71.052734L44.082031 68.935547C45.259196 69.561132 46.513193 70.048914 47.832031 70.384766L49.833984 75.058594L55.1875 74.927734L56.960938 70.160156C58.261618 69.7602 59.489763 69.213151 60.634766 68.53125L65.359375 70.419922L69.050781 66.544922L66.933594 61.917969C67.559179 60.740804 68.046961 59.486807 68.382812 58.167969L73.056641 56.166016L72.925781 50.8125L68.158203 49.039062C67.758247 47.738382 67.211198 46.510237 66.529297 45.365234L68.417969 40.640625L64.542969 36.949219L59.916016 39.066406C58.90031 38.526626 57.845086 38.04722 56.732422 37.701172C56.905244 36.491696 57 35.256859 57 34C57 19.65255 45.34745 8 31 8 z M 31 10C44.26655 10 55 20.73345 55 34C55 47.26655 44.26655 58 31 58C17.73345 58 7 47.26655 7 34C7 20.73345 17.73345 10 31 10 z M 31 13 A 1.0001 1.0001 0 1 0 31 15 A 1.0001 1.0001 0 1 0 31 13 z M 36.181641 13.677734L35.380859 14.080078L35.222656 14.960938L35.835938 15.615234L36.181641 15.677734L36.982422 15.277344L37.140625 14.394531L36.529297 13.740234L36.181641 13.677734 z M 25.826172 13.6875L25.025391 14.089844L24.867188 14.970703L25.478516 15.625L25.826172 15.6875L26.626953 15.287109L26.785156 14.404297L26.171875 13.75L25.826172 13.6875 z M 21.005859 15.685547L20.205078 16.085938L20.046875 16.96875L20.658203 17.623047L21.005859 17.685547L21.806641 17.283203L21.964844 16.402344L21.351562 15.746094L21.005859 15.685547 z M 40.998047 15.689453L40.197266 16.091797L40.039062 16.972656L40.650391 17.626953L40.998047 17.689453L41.798828 17.289062L41.957031 16.40625L41.34375 15.751953L40.998047 15.689453 z M 16.863281 18.861328L16.0625 19.261719L15.904297 20.144531L16.517578 20.798828L16.863281 20.861328L17.664062 20.458984L17.822266 19.576172L17.210938 18.921875L16.863281 18.861328 z M 45.138672 18.863281L44.337891 19.265625L44.179688 20.148438L44.792969 20.802734L45.138672 20.863281L45.941406 20.462891L46.097656 19.580078L45.486328 18.925781L45.138672 18.863281 z M 30.082031 21.574219L30.082031 23.494141C26.326031 23.842141 24.044922 25.972547 24.044922 29.185547C24.044922 31.899547 25.74175 33.763641 28.84375 34.556641L30.082031 34.876953L30.082031 41.220703C28.009031 40.983703 26.672203 39.828828 26.533203 38.173828L23.585938 38.173828C23.599938 41.401828 26.103031 43.585609 30.082031 43.849609L30.082031 45.65625L31.988281 45.65625L31.988281 43.835938C36.064281 43.487937 38.416016 41.358219 38.416016 37.949219C38.416016 35.069219 36.77325 33.304078 33.28125 32.455078L31.988281 32.162109L31.988281 26.166016C33.824281 26.389016 35.076813 27.584234 35.132812 29.115234L38.039062 29.115234C37.955062 26.012234 35.591281 23.814141 31.988281 23.494141L31.988281 21.574219L30.082031 21.574219 z M 13.689453 23.001953L12.888672 23.404297L12.730469 24.285156L13.341797 24.939453L13.689453 25.001953L14.490234 24.601562L14.648438 23.71875L14.037109 23.064453L13.689453 23.001953 z M 48.314453 23.005859L47.513672 23.40625L47.355469 24.289062L47.96875 24.943359L48.314453 25.005859L49.115234 24.603516L49.273438 23.722656L48.662109 23.068359L48.314453 23.005859 z M 30.082031 26.152344L30.082031 31.759766C28.078031 31.355766 27.021484 30.368547 27.021484 28.935547C27.021484 27.418547 28.301031 26.249344 30.082031 26.152344 z M 11.677734 27.818359L10.876953 28.21875L10.71875 29.101562L11.330078 29.755859L11.677734 29.818359L12.478516 29.416016L12.636719 28.535156L12.025391 27.880859L11.677734 27.818359 z M 50.3125 27.826172L49.511719 28.226562L49.353516 29.109375L49.964844 29.763672L50.3125 29.826172L51.113281 29.423828L51.271484 28.542969L50.658203 27.888672L50.3125 27.826172 z M 11 33 A 1.0001 1.0001 0 1 0 11 35 A 1.0001 1.0001 0 1 0 11 33 z M 51 33 A 1.0001 1.0001 0 1 0 51 35 A 1.0001 1.0001 0 1 0 51 33 z M 31.988281 35.238281C34.353281 35.711281 35.451172 36.670484 35.451172 38.271484C35.451172 40.038484 34.186281 41.122047 31.988281 41.248047L31.988281 35.238281 z M 11.6875 38.173828L10.886719 38.576172L10.728516 39.457031L11.341797 40.111328L11.6875 40.173828L12.488281 39.773438L12.646484 38.890625L12.035156 38.236328L11.6875 38.173828 z M 50.322266 38.181641L49.521484 38.583984L49.363281 39.464844L49.974609 40.119141L50.322266 40.181641L51.123047 39.78125L51.28125 38.898438L50.669922 38.244141L50.322266 38.181641 z M 64.144531 39.330078L66.058594 41.15625L64.332031 45.476562L64.609375 45.910156C65.429765 47.186215 66.059949 48.591407 66.464844 50.095703L66.599609 50.59375L70.958984 52.214844L71.025391 54.861328L66.748047 56.693359L66.638672 57.197266C66.307837 58.719294 65.747732 60.152426 64.990234 61.466797L64.732422 61.914062L66.669922 66.146484L64.84375 68.060547L60.523438 66.333984L60.089844 66.611328C58.813785 67.431718 57.408593 68.061902 55.904297 68.466797L55.40625 68.601562L53.785156 72.960938L51.138672 73.027344L49.306641 68.75L48.802734 68.640625C47.280706 68.30979 45.847574 67.749685 44.533203 66.992188L44.085938 66.734375L39.853516 68.671875L37.939453 66.847656L39.666016 62.525391L39.388672 62.091797C38.783081 61.149843 38.28263 60.13701 37.898438 59.066406C40.888001 58.243932 43.661006 56.901215 46.117188 55.140625C46.664241 57.958985 49.185857 60.069917 52.146484 59.998047C55.44788 59.917937 58.078162 57.155731 57.998047 53.855469C57.926184 50.893933 55.694277 48.478021 52.853516 48.068359C54.488566 45.535665 55.69478 42.703134 56.371094 39.669922C57.458976 40.001164 58.494419 40.450491 59.464844 41.009766L59.912109 41.267578L64.144531 39.330078 z M 13.685547 42.994141L12.884766 43.396484L12.726562 44.277344L13.337891 44.931641L13.685547 44.994141L14.486328 44.59375L14.644531 43.710938L14.03125 43.056641L13.685547 42.994141 z M 48.310547 42.998047L47.509766 43.398438L47.351562 44.28125L47.962891 44.935547L48.310547 44.998047L49.111328 44.595703L49.269531 43.714844L48.658203 43.060547L48.310547 42.998047 z M 56.886719 44.226562C56.498594 44.188219 56.106203 44.379188 55.908203 44.742188C55.644203 45.227187 55.823594 45.834609 56.308594 46.099609C56.793594 46.363609 57.399063 46.184219 57.664062 45.699219C57.929063 45.214219 57.750625 44.60875 57.265625 44.34375C57.144125 44.27775 57.016094 44.239344 56.886719 44.226562 z M 16.861328 47.136719L16.058594 47.537109L15.902344 48.419922L16.513672 49.074219L16.861328 49.136719L17.662109 48.734375L17.820312 47.851562L17.207031 47.197266L16.861328 47.136719 z M 45.136719 47.138672L44.335938 47.541016L44.177734 48.423828L44.789062 49.078125L45.136719 49.138672L45.9375 48.738281L46.095703 47.855469L45.482422 47.201172L45.136719 47.138672 z M 60.386719 47.800781C60.258234 47.819938 60.131422 47.863547 60.013672 47.935547C59.542672 48.223547 59.394641 48.838547 59.681641 49.310547C59.968641 49.782547 60.584641 49.931531 61.056641 49.644531C61.527641 49.356531 61.675672 48.741531 61.388672 48.269531C61.172672 47.915531 60.772172 47.743313 60.386719 47.800781 z M 51.902344 50.001953C54.122081 49.948063 55.946114 51.681739 56 53.902344C56.05389 56.122081 54.318261 57.946114 52.097656 58C49.877919 58.05389 48.05584 56.318261 48.001953 54.097656L48.001953 54.095703C47.997953 53.9419 48.002443 53.790342 48.015625 53.640625C49.265575 52.556486 50.41136 51.355959 51.435547 50.054688C51.589845 50.032831 51.742714 50.005682 51.902344 50.001953 z M 21.001953 50.310547L20.201172 50.710938L20.042969 51.59375L20.65625 52.248047L21.001953 52.310547L21.802734 51.908203L21.960938 51.027344L21.349609 50.373047L21.001953 50.310547 z M 40.994141 50.314453L40.193359 50.716797L40.035156 51.597656L40.648438 52.253906L40.994141 52.314453L41.794922 51.914062L41.953125 51.03125L41.341797 50.376953L40.994141 50.314453 z M 36.173828 52.3125L35.373047 52.712891L35.214844 53.595703L35.828125 54.25L36.173828 54.3125L36.974609 53.910156L37.132812 53.029297L36.521484 52.375L36.173828 52.3125 z M 25.818359 52.322266L25.017578 52.722656L24.859375 53.605469L25.470703 54.259766L25.818359 54.322266L26.619141 53.919922L26.777344 53.039062L26.164062 52.384766L25.818359 52.322266 z M 61.996094 52.755859 A 1 1 0 0 0 61.996094 54.755859 A 1 1 0 0 0 61.996094 52.755859 z M 31 53 A 1.0001 1.0001 0 1 0 31 55 A 1.0001 1.0001 0 1 0 31 53 z M 60.876953 57.792969C60.488828 57.75425 60.098391 57.946797 59.900391 58.310547C59.636391 58.795547 59.813828 59.402969 60.298828 59.667969C60.783828 59.932969 61.39125 59.752578 61.65625 59.267578C61.92025 58.782578 61.742812 58.175156 61.257812 57.910156C61.136313 57.843906 61.006328 57.805875 60.876953 57.792969 z M 43.316406 58.21875C43.187875 58.237906 43.061359 58.283469 42.943359 58.355469C42.472359 58.643469 42.322375 59.258469 42.609375 59.730469C42.897375 60.201469 43.512375 60.3495 43.984375 60.0625C44.456375 59.7755 44.605359 59.1595 44.318359 58.6875C44.102359 58.3335 43.702 58.161281 43.316406 58.21875 z M 57.060547 61.544922C56.932016 61.563953 56.8055 61.607937 56.6875 61.679688C56.2165 61.967687 56.068469 62.582687 56.355469 63.054688C56.643469 63.525687 57.258469 63.675672 57.730469 63.388672C58.202469 63.101672 58.3495 62.485672 58.0625 62.013672C57.8465 61.660422 57.446141 61.487828 57.060547 61.544922 z M 47.310547 61.785156C46.922562 61.746437 46.530031 61.938984 46.332031 62.302734C46.068031 62.787734 46.247422 63.393203 46.732422 63.658203C47.217422 63.923203 47.824844 63.744766 48.089844 63.259766C48.354844 62.774766 48.174453 62.167344 47.689453 61.902344C47.568203 61.836094 47.439875 61.798063 47.310547 61.785156 z M 52.244141 62.996094 A 1 1 0 0 0 52.244141 64.996094 A 1 1 0 0 0 52.244141 62.996094 z" fill="#3B3B3B" />
</svg>