<?xml version="1.0" encoding="utf-8"?>
<svg xmlns="http://www.w3.org/2000/svg" viewBox="0 0 48 48" width="144" height="144">
  <path d="M24 4C18.556953 4 13.61141 6.1899788 10 9.7304688L10 9 A 2.0002 2.0002 0 0 0 7.9707031 6.9726562 A 2.0002 2.0002 0 0 0 6 9L6 15 A 2.0002 2.0002 0 0 0 8 17L14 17 A 2.0002 2.0002 0 1 0 14 13L12.382812 13C15.296186 9.9213791 19.413148 8 24 8C32.860089 8 40 15.139911 40 24C40 32.860089 32.860089 40 24 40 A 2.0002 2.0002 0 1 0 24 44C35.021911 44 44 35.021911 44 24C44 12.978089 35.021911 4 24 4 z M 23.970703 10.972656 A 2.0002 2.0002 0 0 0 22 13L22 13.255859C19.182699 13.858059 17 16.264295 17 19.25C17 22.678096 19.821904 25.5 23.25 25.5L24.25 25.5C25.791795 25.5 27 26.708205 27 28.25C27 29.791795 25.791795 31 24.25 31L23 31C22.049677 31 21.286938 30.361997 21.064453 29.507812 A 2.0002 2.0002 0 1 0 17.193359 30.515625C17.781865 32.775064 19.687421 34.428067 22 34.830078L22 35 A 2.0002 2.0002 0 1 0 26 35L26 34.642578C28.846019 33.850008 31 31.334933 31 28.25C31 24.545795 27.954205 21.5 24.25 21.5L23.25 21.5C21.984096 21.5 21 20.515904 21 19.25C21 17.984096 21.984096 17 23.25 17L24.5 17C25.443192 17 26.203383 17.632009 26.431641 18.476562 A 2.0002 2.0002 0 1 0 30.292969 17.431641C29.733 15.359757 28.066282 13.796644 26 13.253906L26 13 A 2.0002 2.0002 0 0 0 23.970703 10.972656 z M 6 22.039062C4.89 22.039062 4 22.939062 4 24.039062C4 25.149062 4.9 26.039062 6 26.039062C7.11 26.029062 8 25.139297 8 24.029297C8 22.929297 7.1 22.039062 6 22.039062 z M 7.3886719 28.917969C7.1289844 28.916094 6.864375 28.965312 6.609375 29.070312C5.589375 29.500312 5.1092969 30.669453 5.5292969 31.689453C5.8492969 32.459453 6.6008594 32.919922 7.3808594 32.919922C7.6408594 32.919922 7.9003906 32.869531 8.1503906 32.769531C9.1703906 32.339531 9.6507031 31.170391 9.2207031 30.150391C8.9057031 29.385391 8.1677344 28.923594 7.3886719 28.917969 z M 11.287109 34.744141C10.775859 34.744141 10.265859 34.940078 9.8808594 35.330078C9.0908594 36.120078 9.1008594 37.380156 9.8808594 38.160156C10.270859 38.550156 10.779062 38.75 11.289062 38.75C11.799062 38.75 12.320937 38.550156 12.710938 38.160156C13.490938 37.380156 13.479219 36.110078 12.699219 35.330078C12.309219 34.940078 11.798359 34.744141 11.287109 34.744141 z M 17.115234 38.644531C16.331953 38.64875 15.594297 39.115859 15.279297 39.880859C14.859297 40.900859 15.349141 42.070234 16.369141 42.490234C16.619141 42.590234 16.880859 42.640625 17.130859 42.640625C17.920859 42.640625 18.660469 42.180156 18.980469 41.410156C19.400469 40.390156 18.920391 39.219062 17.900391 38.789062L17.900391 38.800781C17.642891 38.693281 17.376328 38.643125 17.115234 38.644531 z" fill="#3B3B3B" />
</svg>