<?xml version="1.0" encoding="utf-8"?>
<svg xmlns="http://www.w3.org/2000/svg" viewBox="0 0 48 48" width="144" height="144">
  <path d="M41.877,12.214L26.565,4.601c-1.607-0.8-3.524-0.8-5.132,0L6.092,12.23c-0.815,0.429-1.23,1.354-1.01,2.25C5.304,15.375,6.102,16,7.023,16H10.5c0.828,0,1.5,0.672,1.5,1.5S11.328,19,10.5,19c-0.231,0-1.146,0-3.5,0v5v14.5c0,3.033,2.468,5.5,5.5,5.5h23c3.032,0,5.5-2.467,5.5-5.5V26v-7c-2.429,0-3.268,0-3.5,0c-0.828,0-1.5-0.672-1.5-1.5s0.672-1.5,1.5-1.5h3.477c0.922,0,1.72-0.625,1.941-1.52C43.139,13.585,42.724,12.66,41.877,12.214z M25.375,34.25v1.375C25.375,36.384,24.76,37,24,37s-1.375-0.616-1.375-1.375v-1.38c-1.71-0.013-3.275-0.638-4.41-1.773c-0.537-0.537-0.537-1.407,0-1.944c0.537-0.537,1.408-0.537,1.945,0c0.443,0.443,1.24,0.972,2.517,0.972h2.698c1.137,0,2.063-0.925,2.063-2.062c0-1.138-0.926-2.063-2.063-2.063h-2.406c-2.654,0-4.813-2.159-4.813-4.813c0-2.535,1.978-4.598,4.469-4.777v-1.41C22.625,15.616,23.24,15,24,15s1.375,0.616,1.375,1.375v1.396c2.123,0.107,3.478,1.321,3.905,1.984c0.412,0.638,0.228,1.489-0.41,1.9c-0.639,0.409-1.49,0.228-1.9-0.41v0.001c-0.004,0-0.595-0.746-1.887-0.746h-2.114c-1.137,0-2.063,0.925-2.063,2.062c0,1.138,0.926,2.063,2.063,2.063h2.406c2.653,0,4.812,2.159,4.812,4.813C30.187,32.091,28.028,34.25,25.375,34.25z" fill="#3B3B3B" />
</svg>