<?xml version="1.0" encoding="utf-8"?>
<svg xmlns="http://www.w3.org/2000/svg" viewBox="0 0 48 48" width="144" height="144">
  <path d="M9 38.5c0 .17.01.34.03.5H5.5C3.57 39 2 37.43 2 35.5v-23C2 10.57 3.57 9 5.5 9h3.53C9.01 9.16 9 9.33 9 9.5V38.5zM46 12.5v23c0 1.93-1.57 3.5-3.5 3.5h-3.53c.02-.16.03-.33.03-.5v-29c0-.17-.01-.34-.03-.5h3.53C44.43 9 46 10.57 46 12.5zM33.5 6h-19C12.57 6 11 7.57 11 9.5v29c0 1.93 1.57 3.5 3.5 3.5h19c1.93 0 3.5-1.57 3.5-3.5v-29C37 7.57 35.43 6 33.5 6zM18.5 35c-.828 0-1.5-.672-1.5-1.5s.672-1.5 1.5-1.5 1.5.672 1.5 1.5S19.328 35 18.5 35zM18.5 29c-.828 0-1.5-.672-1.5-1.5s.672-1.5 1.5-1.5 1.5.672 1.5 1.5S19.328 29 18.5 29zM18.5 23c-.828 0-1.5-.672-1.5-1.5s.672-1.5 1.5-1.5 1.5.672 1.5 1.5S19.328 23 18.5 23zM29.5 35h-6c-.829 0-1.5-.672-1.5-1.5s.671-1.5 1.5-1.5h6c.829 0 1.5.672 1.5 1.5S30.329 35 29.5 35zM29.5 29h-6c-.829 0-1.5-.672-1.5-1.5s.671-1.5 1.5-1.5h6c.829 0 1.5.672 1.5 1.5S30.329 29 29.5 29zM29.5 23h-6c-.829 0-1.5-.672-1.5-1.5s.671-1.5 1.5-1.5h6c.829 0 1.5.672 1.5 1.5S30.329 23 29.5 23zM29.5 16h-11c-.829 0-1.5-.672-1.5-1.5s.671-1.5 1.5-1.5h11c.829 0 1.5.672 1.5 1.5S30.329 16 29.5 16z" fill="#3B3B3B" />
</svg>