<?xml version="1.0" encoding="utf-8"?>
<svg xmlns="http://www.w3.org/2000/svg" viewBox="0 0 50 50" width="500" height="500">
  <path d="M47 7L3 7C2.445313 7 2 7.449219 2 8L2 42C2 42.550781 2.445313 43 3 43L47 43C47.554688 43 48 42.550781 48 42L48 8C48 7.449219 47.554688 7 47 7 Z M 16 14L9 14L9 21C9 21.550781 8.554688 22 8 22C7.445313 22 7 21.550781 7 21L7 13C7 12.449219 7.445313 12 8 12L16 12C16.554688 12 17 12.449219 17 13C17 13.550781 16.554688 14 16 14 Z M 43 37C43 37.550781 42.554688 38 42 38L34 38C33.445313 38 33 37.550781 33 37C33 36.449219 33.445313 36 34 36L41 36L41 29C41 28.449219 41.445313 28 42 28C42.554688 28 43 28.449219 43 29Z" fill="#3B3B3B" />
</svg>