<?xml version="1.0" encoding="utf-8"?>
<svg xmlns="http://www.w3.org/2000/svg" viewBox="0 0 50 50" width="500" height="500">
  <path d="M0 7L0 39L50 39L50 7 Z M 13.1875 17L16.6875 17L16 21.1875L20.59375 21.1875L21.3125 17L24.8125 17L22.8125 29L19.3125 29L20.09375 24.09375L15.5 24.09375L14.6875 29L11.1875 29 Z M 28.40625 17L35.09375 17C38.792969 17 40.195313 18.289063 39.59375 21.6875L39.1875 24.1875C38.6875 27.488281 37.292969 29 33.59375 29L26.5 29L28.09375 19.8125 Z M 31.6875 19.8125L30.59375 26.1875L33.59375 26.1875C34.894531 26.1875 35.488281 25.488281 35.6875 24.1875L36.09375 21.6875C36.394531 20.085938 35.886719 19.8125 34.6875 19.8125 Z M 10.8125 41C10.261719 41.050781 9.855469 41.542969 9.90625 42.09375C9.957031 42.644531 10.449219 43.050781 11 43L39 43C39.359375 43.003906 39.695313 42.816406 39.878906 42.503906C40.058594 42.191406 40.058594 41.808594 39.878906 41.496094C39.695313 41.183594 39.359375 40.996094 39 41L11 41C10.96875 41 10.9375 41 10.90625 41C10.875 41 10.84375 41 10.8125 41Z" fill="#3B3B3B" />
</svg>