<?xml version="1.0" encoding="utf-8"?>
<svg xmlns="http://www.w3.org/2000/svg" viewBox="0 0 50 50" width="500" height="500">
  <path d="M0 7L0 39L50 39L50 7 Z M 19 15.09375C22.699219 15.09375 25.8125 17.601563 26.8125 21L27.3125 17L33.8125 17C33.8125 17 39.003906 17 38.90625 22C38.90625 26.800781 35.992188 29.3125 32.09375 29.3125L25.90625 29.3125L26.09375 27.09375C24.695313 29.59375 22.101563 31.3125 19 31.3125C14.5 31.3125 10.90625 27.6875 10.90625 23.1875C10.90625 18.6875 14.5 15.09375 19 15.09375 Z M 20.3125 17.3125C17.449219 17.3125 15.78125 18.957031 15.4375 20.5C14.886719 23.101563 17.554688 23.757813 19.15625 24.15625C19.914063 24.34375 21.050781 24.625 21.25 24.96875C21.300781 25.054688 21.277344 25.246094 21.25 25.34375C20.832031 26.851563 18.835938 27 18 27C16.429688 27 15.90625 26.535156 15.90625 25.1875L13.90625 25.1875C13.90625 26.921875 14.609375 29 18 29C20.6875 29 22.613281 27.835938 23.15625 25.875C23.355469 25.167969 23.289063 24.519531 22.96875 23.96875C22.34375 22.894531 20.964844 22.554688 19.625 22.21875C17.5625 21.703125 17.265625 21.429688 17.375 20.90625C17.476563 20.457031 18.207031 19.3125 20.3125 19.3125C22.210938 19.3125 22.1875 20.097656 22.1875 20.6875L24.1875 20.6875C24.1875 17.730469 21.769531 17.3125 20.3125 17.3125 Z M 30.6875 19.59375L29.8125 26.5L31.6875 26.5C31.6875 26.5 35.1875 25.894531 35.1875 22.59375C35.1875 19.894531 32.40625 19.59375 32.40625 19.59375 Z M 10.8125 41C10.261719 41.050781 9.855469 41.542969 9.90625 42.09375C9.957031 42.644531 10.449219 43.050781 11 43L39 43C39.359375 43.003906 39.695313 42.816406 39.878906 42.503906C40.058594 42.191406 40.058594 41.808594 39.878906 41.496094C39.695313 41.183594 39.359375 40.996094 39 41L11 41C10.96875 41 10.9375 41 10.90625 41C10.875 41 10.84375 41 10.8125 41Z" fill="#3B3B3B" />
</svg>