<?xml version="1.0" encoding="utf-8"?>
<svg xmlns="http://www.w3.org/2000/svg" viewBox="0 0 50 50" width="500" height="500">
  <path d="M1 4L1 46L49 46L49 4 Z M 3 6L6 6L6 9L3 9 Z M 8 6L12 6L12 9L8 9 Z M 14 6L18 6L18 9L14 9 Z M 20 6L24 6L24 9L20 9 Z M 26 6L30 6L30 9L26 9 Z M 32 6L36 6L36 9L32 9 Z M 38 6L42 6L42 9L38 9 Z M 44 6L47 6L47 9L44 9 Z M 16.40625 19L19 19L19 27L20 27L20 29L19 29L19 31L17 31L17 29L12 29L12 27.4375 Z M 25.5 19C27.429688 19 29 20.570313 29 22.5C29 23.117188 28.832031 23.824219 28.53125 24.5C28.832031 25.175781 29 25.882813 29 26.5L29 27.5C29 29.429688 27.429688 31 25.5 31C23.570313 31 22 29.429688 22 27.5L22 26.5C22 25.886719 22.167969 25.179688 22.46875 24.5C22.167969 23.820313 22 23.113281 22 22.5C22 20.570313 23.570313 19 25.5 19 Z M 34.5 19C36.429688 19 38 20.570313 38 22.5L38 27.5C38 29.429688 36.429688 31 34.5 31C32.570313 31 31 29.429688 31 27.5L31 22.5C31 20.570313 32.570313 19 34.5 19 Z M 25.5 21C24.671875 21 24 21.671875 24 22.5C24 22.550781 23.996094 22.601563 24 22.65625C24.058594 23.074219 24.359375 24 25.5 24C26.640625 24 26.941406 23.070313 27 22.65625C27.003906 22.601563 27 22.550781 27 22.5C27 21.671875 26.328125 21 25.5 21 Z M 34.5 21C33.671875 21 33 21.671875 33 22.5L33 27.5C33 28.328125 33.671875 29 34.5 29C35.328125 29 36 28.328125 36 27.5L36 22.5C36 21.671875 35.328125 21 34.5 21 Z M 17 22.15625L14.5 27L17 27 Z M 25.5 25C24.3125 25 24.082031 25.921875 24.03125 26.3125C24.027344 26.371094 24 26.445313 24 26.5L24 27.5C24 28.328125 24.671875 29 25.5 29C26.328125 29 27 28.328125 27 27.5L27 26.5C27 26.445313 26.972656 26.371094 26.96875 26.3125C26.917969 25.921875 26.691406 25 25.5 25 Z M 3 41L6 41L6 44L3 44 Z M 8 41L12 41L12 44L8 44 Z M 14 41L18 41L18 44L14 44 Z M 20 41L24 41L24 44L20 44 Z M 26 41L30 41L30 44L26 44 Z M 32 41L36 41L36 44L32 44 Z M 38 41L42 41L42 44L38 44 Z M 44 41L47 41L47 44L44 44Z" fill="#3B3B3B" />
</svg>