<?xml version="1.0" encoding="utf-8"?>
<svg xmlns="http://www.w3.org/2000/svg" viewBox="0 0 50 50" width="500" height="500">
  <path d="M0 9L0 41L50 41L50 9 Z M 19.5 18.5C19.75 18.5 19.988281 18.613281 20.1875 18.8125L25 23.59375L29.8125 18.8125C30.210938 18.414063 30.789063 18.414063 31.1875 18.8125C31.585938 19.210938 31.585938 19.789063 31.1875 20.1875L26.40625 25L31.1875 29.8125C31.585938 30.210938 31.585938 30.789063 31.1875 31.1875C30.988281 31.386719 30.699219 31.5 30.5 31.5C30.300781 31.5 30.011719 31.386719 29.8125 31.1875L25 26.40625L20.1875 31.1875C19.988281 31.386719 19.699219 31.5 19.5 31.5C19.300781 31.5 19.011719 31.386719 18.8125 31.1875C18.414063 30.789063 18.414063 30.210938 18.8125 29.8125L23.59375 25L18.8125 20.1875C18.414063 19.789063 18.414063 19.210938 18.8125 18.8125C19.011719 18.613281 19.25 18.5 19.5 18.5 Z M 10.8125 43C10.261719 43.050781 9.855469 43.542969 9.90625 44.09375C9.957031 44.644531 10.449219 45.050781 11 45L39 45C39.359375 45.003906 39.695313 44.816406 39.878906 44.503906C40.058594 44.191406 40.058594 43.808594 39.878906 43.496094C39.695313 43.183594 39.359375 42.996094 39 43L11 43C10.96875 43 10.9375 43 10.90625 43C10.875 43 10.84375 43 10.8125 43Z" fill="#3B3B3B" />
</svg>