<?xml version="1.0" encoding="utf-8"?>
<svg xmlns="http://www.w3.org/2000/svg" viewBox="0 0 50 50" width="500" height="500">
  <path d="M24.90625 0.96875C24.863281 0.976563 24.820313 0.988281 24.78125 1C24.316406 1.105469 23.988281 1.523438 24 2L24 32.5625L17.71875 26.28125C17.476563 26.03125 17.121094 25.925781 16.78125 26C16.40625 26.066406 16.105469 26.339844 16 26.703125C15.894531 27.070313 16.003906 27.460938 16.28125 27.71875L24.28125 35.71875L25 36.40625L25.71875 35.71875L33.71875 27.71875C34.117188 27.320313 34.117188 26.679688 33.71875 26.28125C33.320313 25.882813 32.679688 25.882813 32.28125 26.28125L26 32.5625L26 2C26.011719 1.710938 25.894531 1.433594 25.6875 1.238281C25.476563 1.039063 25.191406 0.941406 24.90625 0.96875 Z M 7 16L7 50L43 50L43 16L33 16C32.640625 15.996094 32.304688 16.183594 32.121094 16.496094C31.941406 16.808594 31.941406 17.191406 32.121094 17.503906C32.304688 17.816406 32.640625 18.003906 33 18L41 18L41 48L9 48L9 18L17 18C17.359375 18.003906 17.695313 17.816406 17.878906 17.503906C18.058594 17.191406 18.058594 16.808594 17.878906 16.496094C17.695313 16.183594 17.359375 15.996094 17 16Z" fill="#3B3B3B" />
</svg>