<?xml version="1.0" encoding="utf-8"?>
<svg xmlns="http://www.w3.org/2000/svg" viewBox="0 0 50 50" width="500" height="500">
  <path d="M5 4C4.448 4 4 4.448 4 5L4 45C4 45.552 4.448 46 5 46L45 46C45.552 46 46 45.552 46 45L46 5C46 4.448 45.552 4 45 4L5 4 z M 13 21C15.209 21 17 22.791 17 25C17 27.209 15.209 29 13 29C10.791 29 9 27.209 9 25C9 22.791 10.791 21 13 21 z M 38.392578 21.287109C40.164578 21.287109 41.5085 22.468453 41.5625 24.064453L39.837891 24.064453C39.744891 23.297453 39.163578 22.78125 38.392578 22.78125C37.411578 22.78125 36.810547 23.620187 36.810547 24.992188C36.810547 26.369187 37.412437 27.220703 38.398438 27.220703C39.169438 27.220703 39.745656 26.721844 39.847656 25.964844L41.566406 25.964844C41.507406 27.575844 40.199578 28.714844 38.392578 28.714844C36.283578 28.713844 34.984375 27.297047 34.984375 24.998047C34.984375 22.698047 36.278578 21.287109 38.392578 21.287109 z M 21 21.476562L24.101562 21.476562C25.747563 21.476562 26.732422 22.345781 26.732422 23.800781C26.732422 24.664781 26.30225 25.455969 25.53125 25.792969L26.9375 28.521484L24.925781 28.521484L23.720703 26.056641L22.792969 26.056641L22.792969 28.523438L21 28.523438L21 21.476562 z M 28.658203 21.476562L33.486328 21.476562L33.486328 22.917969L30.449219 22.917969L30.449219 24.322266L33.306641 24.322266L33.306641 25.640625L30.449219 25.640625L30.449219 27.080078L33.486328 27.080078L33.486328 28.523438L28.658203 28.523438L28.658203 21.476562 z M 22.792969 22.828125L22.792969 24.792969L23.851562 24.792969C24.510562 24.792969 24.902344 24.425453 24.902344 23.814453C24.902344 23.213453 24.487656 22.828125 23.847656 22.828125L22.792969 22.828125 z" fill="#3B3B3B" />
</svg>