<?xml version="1.0" encoding="utf-8"?>
<svg xmlns="http://www.w3.org/2000/svg" viewBox="0 0 50 50" width="500" height="500">
  <path d="M1 4L1 46L49 46L49 4 Z M 3 6L6 6L6 9L3 9 Z M 8 6L12 6L12 9L8 9 Z M 14 6L18 6L18 9L14 9 Z M 20 6L24 6L24 9L20 9 Z M 26 6L30 6L30 9L26 9 Z M 32 6L36 6L36 9L32 9 Z M 38 6L42 6L42 9L38 9 Z M 44 6L47 6L47 9L44 9 Z M 19.5 19C21.429688 19 23 20.570313 23 22.5L23 27.5C23 29.429688 21.429688 31 19.5 31C17.570313 31 16 29.429688 16 27.5L16 22.5C16 20.570313 17.570313 19 19.5 19 Z M 28.5 19C30.429688 19 32 20.570313 32 22.5C32 23.117188 31.832031 23.824219 31.53125 24.5C31.832031 25.175781 32 25.882813 32 26.5L32 27.5C32 29.429688 30.429688 31 28.5 31C26.570313 31 25 29.429688 25 27.5L25 26.5C25 25.882813 25.167969 25.175781 25.46875 24.5C25.167969 23.824219 25 23.117188 25 22.5C25 20.570313 26.570313 19 28.5 19 Z M 37.5 19C39.429688 19 41 20.570313 41 22.5L41 27.5C41 29.429688 39.429688 31 37.5 31C35.570313 31 34 29.429688 34 27.5L34 22.5C34 20.570313 35.570313 19 37.5 19 Z M 12.125 19.1875L14 19.1875L14 31L12 31L12 24L9 24L9 22C11.175781 22 11.878906 19.960938 11.90625 19.875 Z M 19.5 21C18.671875 21 18 21.671875 18 22.5L18 27.5C18 28.328125 18.671875 29 19.5 29C20.328125 29 21 28.328125 21 27.5L21 22.5C21 21.671875 20.328125 21 19.5 21 Z M 28.5 21C27.671875 21 27 21.671875 27 22.5C27 22.550781 26.996094 22.601563 27 22.65625C27.058594 23.074219 27.359375 24 28.5 24C29.640625 24 29.941406 23.070313 30 22.65625C30.003906 22.601563 30 22.550781 30 22.5C30 21.671875 29.328125 21 28.5 21 Z M 37.5 21C36.671875 21 36 21.671875 36 22.5L36 27.5C36 28.328125 36.671875 29 37.5 29C38.328125 29 39 28.328125 39 27.5L39 22.5C39 21.671875 38.328125 21 37.5 21 Z M 28.5 25C27.308594 25 27.082031 25.921875 27.03125 26.3125C27.027344 26.371094 27 26.445313 27 26.5L27 27.5C27 28.328125 27.671875 29 28.5 29C29.328125 29 30 28.328125 30 27.5L30 26.5C30 26.445313 29.972656 26.371094 29.96875 26.3125C29.917969 25.921875 29.691406 25 28.5 25 Z M 3 41L6 41L6 44L3 44 Z M 8 41L12 41L12 44L8 44 Z M 14 41L18 41L18 44L14 44 Z M 20 41L24 41L24 44L20 44 Z M 26 41L30 41L30 44L26 44 Z M 32 41L36 41L36 44L32 44 Z M 38 41L42 41L42 44L38 44 Z M 44 41L47 41L47 44L44 44Z" fill="#3B3B3B" />
</svg>