<?xml version="1.0" encoding="utf-8"?>
<svg xmlns="http://www.w3.org/2000/svg" viewBox="0 0 50 50" width="500" height="500">
  <path d="M24.1875 3C23.277344 3 22.332031 3.4375 21.5625 4.21875L9.9375 15.8125C9.296875 16.378906 9 17.476563 9 18.25L9 31.75C9 32.515625 9.316406 33.605469 9.90625 34.125L21.5 45.6875C22.554688 46.757813 23.527344 47 24.15625 47C25.824219 47 27 45.476563 27 43.3125L27 6.3125C27 4.035156 25.539063 3 24.1875 3 Z M 3 15.96875C1.324219 15.96875 -0.03125 17.324219 -0.03125 19L-0.03125 31C-0.03125 32.675781 1.324219 34.03125 3 34.03125L7.46875 34.03125C7.140625 33.246094 7 32.410156 7 31.75L7 18.25C7 17.59375 7.164063 16.761719 7.5 15.96875 Z M 30.53125 18.40625C30.046875 18.464844 29.679688 18.863281 29.65625 19.351563C29.632813 19.835938 29.960938 20.269531 30.4375 20.375C32.484375 20.910156 34 22.777344 34 25C34 27.222656 32.484375 29.089844 30.4375 29.625C29.902344 29.761719 29.582031 30.308594 29.71875 30.84375C29.855469 31.378906 30.402344 31.699219 30.9375 31.5625C33.851563 30.800781 36 28.136719 36 25C36 21.863281 33.847656 19.199219 30.9375 18.4375C30.804688 18.398438 30.667969 18.390625 30.53125 18.40625Z" fill="#3B3B3B" />
</svg>