<?xml version="1.0" encoding="utf-8"?>
<svg xmlns="http://www.w3.org/2000/svg" viewBox="0 0 50 50" width="500" height="500">
  <path d="M1 4L1 46L49 46L49 4 Z M 3 6L6 6L6 9L3 9 Z M 8 6L12 6L12 9L8 9 Z M 14 6L18 6L18 9L14 9 Z M 20 6L24 6L24 9L20 9 Z M 26 6L30 6L30 9L26 9 Z M 32 6L36 6L36 9L32 9 Z M 38 6L42 6L42 9L38 9 Z M 44 6L47 6L47 9L44 9 Z M 20.40625 19L23 19L23 27L24 27L24 29L23 29L23 31L21 31L21 29L16 29L16 27.4375 Z M 26 19L28 19L28 24.40625L31 19L33 19L30.0625 24.28125L33 31L31 31L28.96875 26.21875L28 28L28 31L26 31 Z M 21 22.15625L18.5 27L21 27 Z M 3 41L6 41L6 44L3 44 Z M 8 41L12 41L12 44L8 44 Z M 14 41L18 41L18 44L14 44 Z M 20 41L24 41L24 44L20 44 Z M 26 41L30 41L30 44L26 44 Z M 32 41L36 41L36 44L32 44 Z M 38 41L42 41L42 44L38 44 Z M 44 41L47 41L47 44L44 44Z" fill="#3B3B3B" />
</svg>