<?xml version="1.0" encoding="utf-8"?>
<svg xmlns="http://www.w3.org/2000/svg" viewBox="0 0 50 50" width="500" height="500">
  <path d="M9.90625 12C9.40625 12 9 12.410156 9 12.8125L9 18L1.1875 18C0.585938 18 0 18.613281 0 19.21875L0 35.78125C0 36.386719 0.585938 37 1.1875 37L13.1875 37C13.585938 37 14 36.691406 14 36.1875L14 12.8125C14 12.410156 13.6875 12 13.1875 12 Z M 17.59375 13.1875C16.394531 13.1875 16 13.605469 16 14.90625L16 15.6875C16 16.886719 16.394531 17.40625 17.59375 17.40625L18 17.40625C19.101563 17.40625 19.5 16.90625 19.5 15.90625L19.5 15.8125L18.40625 15.8125L18.40625 15.90625C18.40625 16.304688 18.3125 16.5 17.8125 16.5C17.3125 16.5 17.1875 16.289063 17.1875 15.6875L17.1875 15C17.1875 14.398438 17.210938 14.1875 17.8125 14.1875C18.210938 14.1875 18.40625 14.289063 18.40625 14.6875L18.40625 14.8125L19.5 14.8125L19.5 14.6875C19.5 13.585938 19.105469 13.1875 17.90625 13.1875 Z M 42.6875 13.1875C41.488281 13.1875 41.09375 13.605469 41.09375 14.90625L41.09375 15.6875C41.09375 16.886719 41.488281 17.40625 42.6875 17.40625L43.09375 17.40625C44.195313 17.40625 44.59375 16.90625 44.59375 15.90625L44.59375 15.8125L43.5 15.8125L43.5 15.90625C43.5 16.304688 43.40625 16.5 42.90625 16.5C42.40625 16.5 42.3125 16.289063 42.3125 15.6875L42.3125 15C42.3125 14.398438 42.304688 14.1875 42.90625 14.1875C43.304688 14.1875 43.5 14.289063 43.5 14.6875L43.5 14.8125L44.59375 14.8125L44.59375 14.6875C44.59375 13.585938 44.199219 13.1875 43 13.1875 Z M 21.875 13.3125C20.996094 13.40625 20.6875 13.863281 20.6875 15L20.6875 15.8125C20.6875 17.011719 21.113281 17.5 22.3125 17.5L22.90625 17.5C24.105469 17.5 24.5 17.011719 24.5 15.8125L24.5 15C24.5 13.699219 24.105469 13.3125 22.90625 13.3125L22.3125 13.3125C22.164063 13.3125 22 13.300781 21.875 13.3125 Z M 25.8125 13.3125L25.8125 17.3125L26.90625 17.3125L26.90625 14.3125L27.6875 17.3125L28.8125 17.3125L29.6875 14.40625L29.6875 17.3125L30.6875 17.3125L30.6875 13.3125L29.09375 13.3125L28.3125 16.1875L27.40625 13.3125 Z M 32.1875 13.3125L32.1875 17.3125L33.3125 17.3125L33.3125 16.1875L34.09375 16.1875C35.195313 16.1875 35.59375 15.8125 35.59375 14.8125L35.59375 14.5C35.59375 13.601563 35.191406 13.3125 34.09375 13.3125 Z M 37.3125 13.3125L36.09375 17.3125L37.3125 17.3125L37.5 16.59375L38.90625 16.59375L39.09375 17.3125L40.3125 17.3125L39.09375 13.3125 Z M 45.6875 13.3125L45.6875 14.1875L46.6875 14.1875L46.6875 17.3125L47.8125 17.3125L47.8125 14.1875L48.90625 14.1875L48.90625 13.3125 Z M 38.3125 14.09375L38.6875 15.8125L37.90625 15.8125 Z M 22.5 14.1875L22.6875 14.1875C23.289063 14.1875 23.3125 14.398438 23.3125 15L23.3125 15.59375C23.3125 16.195313 23.289063 16.40625 22.6875 16.40625L22.5 16.40625C21.898438 16.40625 21.90625 16.195313 21.90625 15.59375L21.90625 15C21.90625 14.398438 21.898438 14.1875 22.5 14.1875 Z M 33.3125 14.1875L34 14.1875C34.398438 14.1875 34.5 14.292969 34.5 14.59375L34.5 14.90625C34.5 15.304688 34.394531 15.40625 34.09375 15.40625L33.3125 15.40625 Z M 17.8125 19C17.3125 19 16.929688 19.3125 17.03125 19.8125L17.03125 36.1875C17.03125 36.585938 17.414063 37 17.8125 37L20.1875 37C20.585938 37 21 36.585938 21 36.1875L21 19.8125C21 19.414063 20.6875 19 20.1875 19 Z M 24.8125 19C24.414063 19 24 19.3125 24 19.8125L24 29.1875C24 29.589844 24.480469 30 24.8125 30L31 30L31 33L24.8125 33C24.414063 33 24 33.3125 24 33.8125L24 36.1875C24 36.585938 24.386719 37 24.8125 37L34.1875 37C34.566406 37 35 36.585938 35 36.1875L35 26.8125C35 26.613281 34.6875 26 34.1875 26L28 26L28 23L34.1875 23C34.722656 23 35 22.488281 35 22.1875L35 19.8125C35 19.414063 34.585938 19 34.1875 19 Z M 38.84375 19C38.445313 19 38 19.3125 38 19.8125L38 36.1875C38 36.585938 38.613281 37 38.8125 37L49.1875 37C49.589844 37 50 36.585938 50 36.1875L50 29L46 29L46 32.1875C46 32.585938 45.585938 33 45.1875 33L42.8125 33C42.511719 33 42 32.585938 42 32.1875L42 23.8125C42 23.414063 42.3125 23 42.8125 23L45.1875 23C46.085938 23 46 23.8125 46 23.8125L46 26L50 26L50 19.8125C50 19.011719 49.1875 19 49.1875 19 Z M 5.8125 22L8.1875 22C8.6875 22 9 22.414063 9 22.8125L9 32.28125C9 32.679688 8.585938 33.09375 8.1875 33.09375L5.8125 33.09375C5.414063 33.09375 5 32.679688 5 32.28125L5 22.8125C5 22.414063 5.3125 22 5.8125 22Z" fill="#3B3B3B" />
</svg>