<?xml version="1.0" encoding="utf-8"?>
<svg xmlns="http://www.w3.org/2000/svg" viewBox="0 0 50 50" width="500" height="500">
  <path d="M1 4L1 46L49 46L49 4 Z M 3 6L6 6L6 9L3 9 Z M 8 6L12 6L12 9L8 9 Z M 14 6L18 6L18 9L14 9 Z M 20 6L24 6L24 9L20 9 Z M 26 6L30 6L30 9L26 9 Z M 32 6L36 6L36 9L32 9 Z M 38 6L42 6L42 9L38 9 Z M 44 6L47 6L47 9L44 9 Z M 13 19L20 19L20 20.875L19.75 21.15625C19.726563 21.183594 17 24.398438 17 31L15 31C15 25.902344 16.472656 22.609375 17.4375 21L13 21 Z M 24.5 19C26.429688 19 28 20.570313 28 22.5C28 24.078125 27.394531 25.574219 26.28125 26.6875L23.9375 29L28 29L28 31L21 31L21 29.125L24.84375 25.25C25.570313 24.523438 26 23.527344 26 22.5C26 21.671875 25.328125 21 24.5 21C23.671875 21 23 21.671875 23 22.5L23 23L21 23L21 22.5C21 20.570313 22.570313 19 24.5 19 Z M 33.5 19C35.429688 19 37 20.570313 37 22.5L37 27.5C37 29.429688 35.429688 31 33.5 31C31.570313 31 30 29.429688 30 27.5L30 22.5C30 20.570313 31.570313 19 33.5 19 Z M 33.5 21C32.671875 21 32 21.671875 32 22.5L32 27.5C32 28.328125 32.671875 29 33.5 29C34.328125 29 35 28.328125 35 27.5L35 22.5C35 21.671875 34.328125 21 33.5 21 Z M 3 41L6 41L6 44L3 44 Z M 8 41L12 41L12 44L8 44 Z M 14 41L18 41L18 44L14 44 Z M 20 41L24 41L24 44L20 44 Z M 26 41L30 41L30 44L26 44 Z M 32 41L36 41L36 44L32 44 Z M 38 41L42 41L42 44L38 44 Z M 44 41L47 41L47 44L44 44Z" fill="#3B3B3B" />
</svg>