<?xml version="1.0" encoding="utf-8"?>
<svg xmlns="http://www.w3.org/2000/svg" viewBox="0 0 50 50" width="500" height="500">
  <path d="M25 4C13.795731 4 4.6034163 12.823708 4.0292969 23.896484 A 2.0002 2.0002 0 1 0 8.0234375 24.103516C8.4893181 15.118292 15.888269 8 25 8C30.664059 8 35.660008 10.759072 38.748047 15L38 15 A 2.0002 2.0002 0 1 0 38 19L46 19L46 11 A 2.0002 2.0002 0 0 0 43.970703 8.9726562 A 2.0002 2.0002 0 0 0 42 11L42 12.669922C38.180092 7.413982 31.977626 4 25 4 z M 22.900391 14L22.400391 17.199219C22.100391 17.299219 21.700391 17.499609 21.400391 17.599609L18.699219 15.699219L15.699219 18.699219L17.5 21.199219C17.3 21.499219 17.199609 21.900781 17.099609 22.300781L14 22.800781L14 27L17.099609 27.5C17.199609 27.8 17.4 28.2 17.5 28.5L15.699219 31.199219L18.699219 34.199219L21.400391 32.400391C21.800391 32.600391 22.1 32.700781 22.5 32.800781L22.900391 36L27.099609 36L27.599609 32.800781C27.899609 32.700781 28.299609 32.500391 28.599609 32.400391L31.300781 34.199219L34.300781 31.199219L32.400391 28.599609C32.600391 28.299609 32.700781 27.899609 32.800781 27.599609L36 27L36 22.800781L32.800781 22.300781C32.700781 22.000781 32.500391 21.600781 32.400391 21.300781L34.199219 18.599609L31.300781 15.699219L28.699219 17.599609C28.399219 17.399609 27.999219 17.299219 27.699219 17.199219L27.099609 14L22.900391 14 z M 25 22C26.7 22 28 23.3 28 25C28 26.7 26.7 28 25 28C23.3 28 22 26.7 22 25C22 23.3 23.3 22 25 22 z M 44.048828 23.972656 A 2.0002 2.0002 0 0 0 41.976562 25.896484C41.510683 34.881708 34.111731 42 25 42C19.33693 42 14.342072 39.241624 11.253906 35.001953L12 35.001953 A 2.0002 2.0002 0 1 0 12 31.001953L4 31L4 39 A 2.0002 2.0002 0 1 0 8 39L8 37.330078C11.819907 42.586018 18.022374 46 25 46C36.204269 46 45.396584 37.176292 45.970703 26.103516 A 2.0002 2.0002 0 0 0 44.048828 23.972656 z" fill="#3B3B3B" />
</svg>