<?xml version="1.0" encoding="utf-8"?>
<svg xmlns="http://www.w3.org/2000/svg" viewBox="0 0 50 50" width="500" height="500">
  <path d="M13 2C12.447 2 12 2.448 12 3L12 47C12 47.358 12.190953 47.689187 12.501953 47.867188C12.812953 48.045187 13.194906 48.043281 13.503906 47.863281L25 41.158203L36.496094 47.863281C36.651094 47.954281 36.826 48 37 48C37.172 48 37.344047 47.956187 37.498047 47.867188C37.809047 47.689188 38 47.358 38 47L38 33.167969L36 34.447266L36 45.259766L25.503906 39.136719C25.348906 39.045719 25.174 39 25 39C24.826 39 24.651094 39.045719 24.496094 39.136719L14 45.259766L14 4L36 4L36 13.205078L36.345703 12.298828L36.648438 11.996094C36.868437 11.776094 37.348953 11.365187 38.001953 11.117188L38.001953 3C38.001953 2.448 37.554953 2 37.001953 2L13 2 z M 39.0625 12.910156C38.6625 12.910156 38.2625 13.210156 38.0625 13.410156L35.662109 19.710938L28.962891 20.111328C28.562891 20.111328 28.1625 20.410547 28.0625 20.810547C27.9625 21.210547 28.062891 21.710156 28.462891 21.910156L33.5625 26.111328L31.861328 32.611328C31.761328 33.011328 31.961719 33.510937 32.261719 33.710938C32.461719 33.810938 32.661328 33.910156 32.861328 33.910156C33.062328 33.910156 33.263891 33.810938 33.462891 33.710938L39.0625 30.111328L44.662109 33.810547C44.962109 34.110547 45.461719 34.010547 45.761719 33.810547C46.161719 33.510547 46.262109 33.110937 46.162109 32.710938L44.462891 26.210938L49.662109 22.011719C49.962109 21.711719 50.062891 21.310156 49.962891 20.910156C49.862891 20.510156 49.4625 20.210938 49.0625 20.210938L42.361328 19.810547L39.962891 13.511719C39.862891 13.211719 39.4625 12.910156 39.0625 12.910156 z M 39.0625 16.710938L40.662109 21.210938C40.862109 21.510937 41.1625 21.810547 41.5625 21.810547L46.363281 22.111328L42.662109 25.111328C42.362109 25.311328 42.263281 25.711328 42.363281 26.111328L43.5625 30.710938L39.5625 28.111328C39.4625 28.011328 39.2625 27.910156 39.0625 27.910156C38.8615 27.910156 38.662891 28.011719 38.462891 28.011719L34.462891 30.611328L35.662109 26.011719C35.762109 25.711719 35.663281 25.211719 35.363281 25.011719L31.662109 22.011719L36.462891 21.810547C36.862891 21.710547 37.163281 21.511328 37.363281 21.111328L39.0625 16.710938 z" fill="#3B3B3B" />
</svg>