<?xml version="1.0" encoding="utf-8"?>
<svg xmlns="http://www.w3.org/2000/svg" viewBox="0 0 64 64" width="512" height="512">
  <path d="M23.65625 4C22.320313 4 21.066406 4.519531 20.121094 5.464844L11.464844 14.121094C10.519531 15.066406 10 16.320313 10 17.65625L10 57C10 58.652344 11.347656 60 13 60L53 60C54.652344 60 56 58.652344 56 57L56 7C56 5.347656 54.652344 4 53 4 Z M 24 6L53 6C53.550781 6 54 6.449219 54 7L54 57C54 57.550781 53.550781 58 53 58L13 58C12.449219 58 12 57.550781 12 57L12 18L21 18C22.652344 18 24 16.652344 24 15 Z M 22 6.5L22 15C22 15.550781 21.550781 16 21 16L12.5 16C12.605469 15.835938 12.734375 15.679688 12.878906 15.535156L21.535156 6.878906C21.679688 6.738281 21.835938 6.613281 22 6.5 Z M 21 22C20.449219 22 20 22.449219 20 23C20 23.550781 20.449219 24 21 24L37 24C37.550781 24 38 23.550781 38 23C38 22.449219 37.550781 22 37 22 Z M 41 22C40.449219 22 40 22.449219 40 23C40 23.550781 40.449219 24 41 24L45 24C45.550781 24 46 23.550781 46 23C46 22.449219 45.550781 22 45 22 Z M 21 26C20.449219 26 20 26.449219 20 27C20 27.550781 20.449219 28 21 28L41 28C41.550781 28 42 27.550781 42 27C42 26.449219 41.550781 26 41 26 Z M 21 32C20.449219 32 20 32.449219 20 33C20 33.550781 20.449219 34 21 34L43 34C43.550781 34 44 33.550781 44 33C44 32.449219 43.550781 32 43 32 Z M 21 36C20.449219 36 20 36.449219 20 37C20 37.550781 20.449219 38 21 38L33 38C33.550781 38 34 37.550781 34 37C34 36.449219 33.550781 36 33 36 Z M 15 50C14.449219 50 14 50.449219 14 51L14 53C14 53.550781 14.449219 54 15 54C15.550781 54 16 53.550781 16 53L16 51C16 50.449219 15.550781 50 15 50 Z M 20 50C19.449219 50 19 50.449219 19 51L19 53C19 53.550781 19.449219 54 20 54C20.550781 54 21 53.550781 21 53L21 51C21 50.449219 20.550781 50 20 50 Z M 25 50C24.449219 50 24 50.449219 24 51L24 53C24 53.550781 24.449219 54 25 54C25.550781 54 26 53.550781 26 53L26 51C26 50.449219 25.550781 50 25 50 Z M 30 50C29.449219 50 29 50.449219 29 51L29 53C29 53.550781 29.449219 54 30 54C30.550781 54 31 53.550781 31 53L31 51C31 50.449219 30.550781 50 30 50 Z M 35 50C34.449219 50 34 50.449219 34 51L34 53C34 53.550781 34.449219 54 35 54C35.550781 54 36 53.550781 36 53L36 51C36 50.449219 35.550781 50 35 50 Z M 40 50C39.449219 50 39 50.449219 39 51L39 53C39 53.550781 39.449219 54 40 54C40.550781 54 41 53.550781 41 53L41 51C41 50.449219 40.550781 50 40 50 Z M 45 50C44.449219 50 44 50.449219 44 51L44 53C44 53.550781 44.449219 54 45 54C45.550781 54 46 53.550781 46 53L46 51C46 50.449219 45.550781 50 45 50 Z M 50 50C49.449219 50 49 50.449219 49 51L49 53C49 53.550781 49.449219 54 50 54C50.550781 54 51 53.550781 51 53L51 51C51 50.449219 50.550781 50 50 50Z" fill="#3B3B3B" />
</svg>