<?xml version="1.0" encoding="utf-8"?>
<svg xmlns="http://www.w3.org/2000/svg" viewBox="0 0 48 48" width="144" height="144">
  <path d="M11.5 6C8.468 6 6 8.468 6 11.5L6 36.5C6 37.505 6.2750469 38.445813 6.7480469 39.257812L21.1875 25.134766C22.7635 23.607766 25.236453 23.606719 26.814453 25.136719L33.322266 31.505859L38.927734 25.900391C39.785734 25.042391 40.845047 24.4615 41.998047 24.1875L41.998047 11.5C41.999047 8.468 39.532 6 36.5 6L11.5 6 z M 30.5 14C32.433 14 34 15.567 34 17.5C34 19.433 32.433 21 30.5 21C28.567 21 27 19.433 27 17.5C27 15.567 28.567 14 30.5 14 z M 43.513672 26.001953C42.364922 26.002203 41.21725 26.439 40.34375 27.3125L28.326172 39.328125C28.015172 39.638125 27.789922 40.025266 27.669922 40.447266L26.058594 46.087891C25.909594 46.610891 26.053453 47.175547 26.439453 47.560547C26.724453 47.845547 27.107 48 27.5 48C27.638 48 27.776109 47.980406 27.912109 47.941406L33.554688 46.330078C33.978687 46.209078 34.365922 45.980828 34.669922 45.673828L46.685547 33.658203C47.532547 32.811203 48 31.683375 48 30.484375C48 29.285375 47.532547 28.1595 46.685547 27.3125C45.811047 26.438 44.662422 26.001703 43.513672 26.001953 z M 24 26.994141C23.73825 26.994016 23.476437 27.093516 23.273438 27.291016L8.9082031 41.347656C9.6802031 41.762656 10.563 42 11.5 42L25.144531 42L25.744141 39.900391C25.958141 39.150391 26.362109 38.462062 26.912109 37.914062L31.199219 33.628906L24.726562 27.292969C24.522562 27.094969 24.26175 26.994266 24 26.994141 z" fill="#3B3B3B" />
</svg>