<?xml version="1.0" encoding="utf-8"?>
<svg xmlns="http://www.w3.org/2000/svg" viewBox="0 0 30 30" width="90" height="90">
  <path d="M7 6 A 1 1 0 0 0 6 7 A 1 1 0 0 0 6 7.0039062L6 15L6 22.996094 A 1 1 0 0 0 6 23 A 1 1 0 0 0 7 24 A 1 1 0 0 0 7.5917969 23.804688L7.59375 23.804688 A 1 1 0 0 0 7.6210938 23.783203L18.541016 15.841797 A 1 1 0 0 0 19 15 A 1 1 0 0 0 18.556641 14.169922L7.59375 6.1953125 A 1 1 0 0 0 7 6 z M 22.5 6C21.672 6 21 6.672 21 7.5L21 22.5C21 23.328 21.672 24 22.5 24C23.328 24 24 23.328 24 22.5L24 7.5C24 6.672 23.328 6 22.5 6 z" fill="#3B3B3B" />
</svg>