<?xml version="1.0" encoding="utf-8"?>
<svg xmlns="http://www.w3.org/2000/svg" width="90" height="90" viewBox="0 0 30 30">
  <path d="M1.7070312 0.29296875L0.29296875 1.7070312L28.292969 29.707031L29.707031 28.292969L26.992188 25.578125C28.963279 22.474938 30 18.937386 30 15.255859C30 10.870859 28.47975 6.5658594 25.71875 3.1308594C25.37275 2.7018594 24.7425 2.6335156 24.3125 2.9785156C23.8815 3.3245156 23.814156 3.9547656 24.160156 4.3847656C26.672156 7.5087656 28 11.268859 28 15.255859C28 18.403042 27.145366 21.431087 25.533203 24.119141L22.714844 21.300781C23.559515 19.406077 24 17.357926 24 15.255859C24 11.896859 22.8975 8.7109687 20.8125 6.0429688C20.4715 5.6079688 19.843203 5.5301406 19.408203 5.8691406C18.973203 6.2091406 18.896328 6.8384375 19.236328 7.2734375C21.043328 9.5864375 22 12.346859 22 15.255859C22 16.810435 21.713763 18.328655 21.175781 19.761719L17.902344 16.488281C17.959493 16.080699 18 15.670252 18 15.255859C18 12.888859 17.094219 10.635156 15.449219 8.9101562C15.067219 8.5111562 14.435156 8.4959531 14.035156 8.8769531C13.636156 9.2579531 13.619953 9.8920156 14.001953 10.291016C15.125251 11.469258 15.808365 12.960725 15.964844 14.550781L11 9.5859375L11 7L9.6738281 8.2597656L1.7070312 0.29296875 z M 3 11C1.343 11 0 12.343 0 14L0 16C0 17.657 1.343 19 3 19L6.7949219 19L11 23L11 15.21875L6.78125 11L3 11 z M 14.865234 19.085938C14.712234 19.327938 14.564813 19.572875 14.382812 19.796875C14.034812 20.224875 14.098344 20.855125 14.527344 21.203125C14.713344 21.354125 14.936203 21.427734 15.158203 21.427734C15.449203 21.427734 15.736594 21.301594 15.933594 21.058594C16.070594 20.890594 16.196312 20.715063 16.320312 20.539062L14.865234 19.085938 z" fill="#3B3B3B" />
</svg>