<?xml version="1.0" encoding="utf-8"?>
<svg xmlns="http://www.w3.org/2000/svg" viewBox="0 0 30 30" width="90" height="90">
  <path d="M4 5C2.895 5 2 5.895 2 7L4 7L4 9L2 9L2 21L4 21L4 23L2 23C2 24.105 2.895 25 4 25L26 25C27.105 25 28 24.105 28 23L26 23L26 21L28 21L28 9L26 9L26 7L28 7C28 5.895 27.105 5 26 5L4 5 z M 6 7L8 7L8 9L6 9L6 7 z M 10 7L12 7L12 9L10 9L10 7 z M 14 7L16 7L16 9L14 9L14 7 z M 18 7L20 7L20 9L18 9L18 7 z M 22 7L24 7L24 9L22 9L22 7 z M 11.435547 12L13.552734 12L13.552734 15.837891L14.300781 15.837891L14.300781 17.027344L13.552734 17.027344L13.552734 18L12.109375 18L12.109375 17.027344L9.1660156 17.027344L9.1660156 15.75C9.7110156 14.706 10.400547 13.571 11.435547 12 z M 15.474609 12L17 12L17 14.578125L17.078125 14.578125L19.074219 12L20.712891 12L18.638672 14.648438L20.833984 18L19.042969 18L17.529297 15.634766L17 16.304688L17 18L15.474609 18L15.474609 12 z M 12.072266 13.089844C11.561266 13.879844 11.158375 14.560406 10.484375 15.816406L10.484375 15.892578L12.146484 15.892578L12.146484 13.089844L12.072266 13.089844 z M 6 21L8 21L8 23L6 23L6 21 z M 10 21L12 21L12 23L10 23L10 21 z M 14 21L16 21L16 23L14 23L14 21 z M 18 21L20 21L20 23L18 23L18 21 z M 22 21L24 21L24 23L22 23L22 21 z" fill="#3B3B3B" />
</svg>