<?xml version="1.0" encoding="utf-8"?>
<svg xmlns="http://www.w3.org/2000/svg" viewBox="0 0 30 30" width="90" height="90">
  <path d="M24.939453 2.7460938 A 1.0001 1.0001 0 0 0 24.160156 4.3847656C26.558398 7.3678979 28 11.139729 28 15.255859C28 19.153774 26.697579 22.735437 24.521484 25.642578 A 1.0003912 1.0003912 0 1 0 26.123047 26.841797C28.542952 23.608938 30 19.599944 30 15.255859C30 10.67199 28.388509 6.4517271 25.71875 3.1308594 A 1.0001 1.0001 0 0 0 24.939453 2.7460938 z M 20.037109 5.6464844 A 1.0001 1.0001 0 0 0 19.236328 7.2734375C20.963426 9.4832305 22 12.243759 22 15.255859C22 18.055119 21.105815 20.636923 19.59375 22.763672 A 1.0001 1.0001 0 1 0 21.222656 23.921875C22.962591 21.474623 24 18.4826 24 15.255859C24 11.78396 22.799402 8.5851757 20.8125 6.0429688 A 1.0001 1.0001 0 0 0 20.037109 5.6464844 z M 11 7L6.7929688 11L3 11C1.343 11 0 12.343 0 14L0 16C0 17.657 1.343 19 3 19L6.7929688 19L11 23L11 7 z M 14.738281 8.5917969 A 1.0001 1.0001 0 0 0 14.001953 10.291016C15.239451 11.587484 16 13.328154 16 15.255859C16 16.979025 15.392559 18.553804 14.380859 19.796875 A 1.0001 1.0001 0 1 0 15.931641 21.058594C17.219941 19.475665 18 17.450694 18 15.255859C18 12.799565 17.023721 10.559688 15.449219 8.9101562 A 1.0001 1.0001 0 0 0 14.738281 8.5917969 z" fill="#3B3B3B" />
</svg>