<?xml version="1.0" encoding="utf-8"?>
<svg xmlns="http://www.w3.org/2000/svg" viewBox="0 0 30 30" width="90" height="90">
  <path d="M6 4C4.895 4 4 4.895 4 6L4 7C4 7.552 4.448 8 5 8C5.552 8 6 7.552 6 7L6 6L7 6C7.552 6 8 5.552 8 5C8 4.448 7.552 4 7 4L6 4 z M 11 4C10.448 4 10 4.448 10 5C10 5.553 10.448 6 11 6L13 6C13.552 6 14 5.552 14 5C14 4.448 13.552 4 13 4L11 4 z M 17 4C16.448 4 16 4.448 16 5C16 5.552 16.448 6 17 6L19 6C19.552 6 20 5.552 20 5C20 4.448 19.552 4 19 4L17 4 z M 23 4C22.448 4 22 4.448 22 5C22 5.552 22.448 6 23 6L24 6L24 7C24 7.552 24.448 8 25 8C25.552 8 26 7.552 26 7L26 6C26 4.895 25.105 4 24 4L23 4 z M 5 10C4.448 10 4 10.448 4 11L4 13C4 13.552 4.448 14 5 14C5.553 14 6 13.552 6 13L6 11C6 10.448 5.552 10 5 10 z M 25 10C24.448 10 24 10.448 24 11L24 13.001953C24 13.553953 24.448 14.001953 25 14.001953C25.552 14.001953 26 13.553953 26 13.001953L26 11C26 10.448 25.552 10 25 10 z M 15.617188 14C15.238188 14 14.893609 14.213734 14.724609 14.552734L14.552734 14.894531C14.213734 15.571531 13.520672 16 12.763672 16L11 16C10.448 16 10 16.448 10 17L10 25C10 25.552 10.448 26 11 26L25 26C25.552 26 26 25.552 26 25L26 17C26 16.448 25.552 16 25 16L23.236328 16C22.478328 16 21.786266 15.572531 21.447266 14.894531L21.275391 14.552734C21.106391 14.214734 20.761813 14 20.382812 14L15.617188 14 z M 5 16C4.448 16 4 16.448 4 17L4 19C4 19.552 4.448 20 5 20C5.552 20 6 19.552 6 19L6 17C6 16.448 5.552 16 5 16 z M 18 17C20.209 17 22 18.791 22 21C22 23.209 20.209 25 18 25C15.791 25 14 23.209 14 21C14 18.791 15.791 17 18 17 z M 18 19 A 2 2 0 0 0 16 21 A 2 2 0 0 0 18 23 A 2 2 0 0 0 20 21 A 2 2 0 0 0 18 19 z M 5 22C4.448 22 4 22.448 4 23L4 24C4 25.105 4.895 26 6 26L7 26C7.552 26 8 25.552 8 25C8 24.448 7.552 24 7 24L6 24L6 23C6 22.448 5.552 22 5 22 z" fill="#3B3B3B" />
</svg>