<?xml version="1.0" encoding="utf-8"?>
<svg xmlns="http://www.w3.org/2000/svg" viewBox="0 0 30 30" width="90" height="90">
  <path d="M6 2 A 1.0001 1.0001 0 1 0 6 4L24 4 A 1.0001 1.0001 0 1 0 24 2L6 2 z M 5 6 A 1.0001 1.0001 0 1 0 5 8L25 8 A 1.0001 1.0001 0 1 0 25 6L5 6 z M 5 10C3.895 10 3 10.895 3 12L3 24C3 25.105 3.895 26 5 26L25 26C26.105 26 27 25.105 27 24L27 12C27 10.895 26.105 10 25 10L5 10 z M 13 14C13.204 14 13.383016 14.076641 13.541016 14.181641L18.546875 17.185547C18.813875 17.365547 19 17.654 19 18C19 18.346 18.813875 18.634453 18.546875 18.814453L13.541016 21.818359C13.383016 21.923359 13.204 22 13 22C12.448 22 12 21.552 12 21L12 15C12 14.448 12.448 14 13 14 z" fill="#3B3B3B" />
</svg>