<?xml version="1.0" encoding="utf-8"?>
<svg xmlns="http://www.w3.org/2000/svg" viewBox="0 0 30 30" width="90" height="90">
  <path d="M6 4C4.9069372 4 4 4.9069372 4 6L4 10 A 1.0001 1.0001 0 1 0 6 10L6 6L10 6 A 1.0001 1.0001 0 1 0 10 4L6 4 z M 20 4 A 1.0001 1.0001 0 1 0 20 6L24 6L24 10 A 1.0001 1.0001 0 1 0 26 10L26 6C26 4.9069372 25.093063 4 24 4L20 4 z M 4.984375 18.986328 A 1.0001 1.0001 0 0 0 4 20L4 24C4 25.093063 4.9069372 26 6 26L10 26 A 1.0001 1.0001 0 1 0 10 24L6 24L6 20 A 1.0001 1.0001 0 0 0 4.984375 18.986328 z M 24.984375 18.986328 A 1.0001 1.0001 0 0 0 24 20L24 24L20 24 A 1.0001 1.0001 0 1 0 20 26L24 26C25.093063 26 26 25.093063 26 24L26 20 A 1.0001 1.0001 0 0 0 24.984375 18.986328 z" fill="#3B3B3B" />
</svg>