<?xml version="1.0" encoding="utf-8"?>
<svg xmlns="http://www.w3.org/2000/svg" viewBox="0 0 30 30" width="90" height="90">
  <path d="M5.9394531 7C5.6394531 7 5.4003906 7.242375 5.4003906 7.484375L5.4003906 10.599609L0.72070312 10.599609C0.36070312 10.599609 1.4802974e-16 10.963172 0 11.326172L0 21.273438C0 21.637438 0.36070312 22 0.72070312 22L7.9199219 22C8.1599219 22 8.4003906 21.818625 8.4003906 21.515625L8.4003906 7.484375C8.4003906 7.242375 8.2199219 7 7.9199219 7L5.9394531 7 z M 10.560547 7.7207031C9.8405469 7.7207031 9.5996094 7.9602344 9.5996094 8.7402344L9.5996094 9.2207031C9.5996094 9.9407031 9.8405469 10.240234 10.560547 10.240234L10.800781 10.240234C11.460781 10.240234 11.699219 9.9398438 11.699219 9.3398438L11.699219 9.2792969L11.039062 9.2792969L11.039062 9.3398438C11.039062 9.5798438 10.979687 9.6992188 10.679688 9.6992188C10.379688 9.6992188 10.320313 9.5807031 10.320312 9.2207031L10.320312 8.8007812C10.320312 8.4407813 10.319688 8.3203125 10.679688 8.3203125C10.919688 8.3203125 11.039062 8.3791406 11.039062 8.6191406L11.039062 8.6796875L11.699219 8.6796875L11.699219 8.6191406C11.699219 7.9591406 11.460234 7.7207031 10.740234 7.7207031L10.560547 7.7207031 z M 25.619141 7.7207031C24.900141 7.7207031 24.658203 7.9602344 24.658203 8.7402344L24.658203 9.2207031C24.658203 9.9407031 24.899141 10.240234 25.619141 10.240234L25.859375 10.240234C26.519375 10.240234 26.759766 9.9398438 26.759766 9.3398438L26.759766 9.2792969L26.099609 9.2792969L26.099609 9.3398438C26.099609 9.5798438 26.040234 9.6992188 25.740234 9.6992188C25.440234 9.6992188 25.380859 9.5807031 25.380859 9.2207031L25.380859 8.8007812C25.380859 8.4407813 25.380234 8.3203125 25.740234 8.3203125C25.980234 8.3203125 26.099609 8.3791406 26.099609 8.6191406L26.099609 8.6796875L26.759766 8.6796875L26.759766 8.6191406C26.759766 7.9591406 26.520781 7.7207031 25.800781 7.7207031L25.619141 7.7207031 z M 13.380859 7.7792969C12.660859 7.7792969 12.419922 8.0207812 12.419922 8.8007812L12.419922 9.2792969C12.419922 9.9992969 12.660859 10.300781 13.380859 10.300781L13.560547 10.300781L13.740234 10.300781C14.460234 10.300781 14.699219 9.9992969 14.699219 9.2792969L14.699219 8.8007812C14.699219 8.0207812 14.460234 7.7792969 13.740234 7.7792969L13.560547 7.7792969L13.380859 7.7792969 z M 15.480469 7.7792969L15.480469 10.179688L16.140625 10.179688L16.140625 8.3808594L16.619141 10.179688L17.28125 10.179688L17.818359 8.4394531L17.818359 10.179688L18.419922 10.179688L18.419922 7.7792969L17.460938 7.7792969L16.980469 9.5195312L16.439453 7.7792969L15.480469 7.7792969 z M 19.318359 7.7792969L19.318359 10.179688L19.980469 10.179688L19.980469 9.5195312L20.339844 9.5195312L20.458984 9.5195312C21.118984 9.5195312 21.359375 9.2796875 21.359375 8.6796875L21.359375 8.5C21.360375 7.96 21.119938 7.7792969 20.460938 7.7792969L20.339844 7.7792969L19.318359 7.7792969 z M 22.380859 7.7792969L21.660156 10.179688L22.380859 10.179688L22.5 9.7597656L22.859375 9.7597656L23.339844 9.7597656L23.457031 10.179688L24.179688 10.179688L23.460938 7.7792969L22.919922 7.7792969L22.380859 7.7792969 z M 27.419922 7.7792969L27.419922 8.3203125L28.019531 8.3203125L28.019531 10.179688L28.681641 10.179688L28.681641 8.3203125L29.339844 8.3203125L29.339844 7.7792969L27.419922 7.7792969 z M 22.980469 8.2597656L23.220703 9.2792969L22.980469 9.2792969L22.740234 9.2792969L22.980469 8.2597656 z M 13.5 8.3203125L13.560547 8.3203125L13.619141 8.3203125C13.979141 8.3203125 13.980469 8.4407812 13.980469 8.8007812L13.980469 9.1601562C13.980469 9.5201562 13.979141 9.640625 13.619141 9.640625L13.560547 9.640625L13.5 9.640625C13.14 9.640625 13.140625 9.5201563 13.140625 9.1601562L13.140625 8.8007812C13.140625 8.4407813 13.14 8.3203125 13.5 8.3203125 z M 19.980469 8.3203125L20.339844 8.3203125L20.400391 8.3203125C20.640391 8.3203125 20.699219 8.3805469 20.699219 8.5605469L20.699219 8.7402344C20.699219 8.9802344 20.640937 9.0390625 20.460938 9.0390625L20.339844 9.0390625L19.980469 9.0390625L19.980469 8.3203125 z M 10.689453 11.199219C10.389453 11.199219 10.210938 11.366688 10.210938 11.679688L10.210938 21.519531C10.210938 21.759531 10.449453 22 10.689453 22L12.119141 22C12.359141 22 12.599609 21.758531 12.599609 21.519531L12.599609 11.679688C12.599609 11.439687 12.419141 11.199219 12.119141 11.199219L10.689453 11.199219 z M 14.880859 11.199219C14.640859 11.199219 14.400391 11.379687 14.400391 11.679688L14.400391 17.318359C14.400391 17.559359 14.681859 17.800781 14.880859 17.800781L18.599609 17.800781L18.599609 19.599609L14.880859 19.609375C14.640859 19.609375 14.400391 19.789844 14.400391 20.089844L14.400391 21.519531C14.400391 21.759531 14.625859 22 14.880859 22L20.519531 22C20.746531 22 21 21.758531 21 21.519531L21 15.880859C21 15.760859 20.819531 15.400391 20.519531 15.400391L16.800781 15.400391L16.800781 13.599609L20.519531 13.599609C20.839531 13.599609 21 13.299141 21 13.119141L21 11.679688C21 11.439687 20.759531 11.199219 20.519531 11.199219L14.880859 11.199219 z M 23.298828 11.199219C23.058828 11.199219 22.800781 11.379687 22.800781 11.679688L22.800781 21.519531C22.800781 21.759531 23.159297 22 23.279297 22L29.519531 22C29.760531 22 30 21.758531 30 21.519531L30 17.199219L27.599609 17.199219L27.599609 19.119141C27.599609 19.359141 27.358141 19.599609 27.119141 19.599609L25.679688 19.599609C25.499687 19.599609 25.199219 19.358141 25.199219 19.119141L25.199219 14.080078C25.199219 13.840078 25.379687 13.599609 25.679688 13.599609L27.119141 13.599609C27.659141 13.599609 27.599609 14.080078 27.599609 14.080078L27.599609 15.400391L30 15.400391L30 11.679688C30 11.199687 29.519531 11.199219 29.519531 11.199219L23.298828 11.199219 z M 3.4804688 13L4.9199219 13C5.2199219 13 5.4003906 13.240469 5.4003906 13.480469L5.4003906 19.169922C5.4003906 19.408922 5.1599219 19.650391 4.9199219 19.650391L3.4804688 19.650391C3.2404688 19.650391 3 19.409922 3 19.169922L3 13.480469C3 13.240469 3.1804688 13 3.4804688 13 z" fill="#3B3B3B" />
</svg>