<?xml version="1.0" encoding="utf-8"?>
<svg xmlns="http://www.w3.org/2000/svg" viewBox="0 0 30 30" width="90" height="90">
  <path d="M15 4L15 7L8 7C4.6983746 7 2 9.6983746 2 13 A 1.0001 1.0001 0 1 0 4 13C4 10.779625 5.7796254 9 8 9L15 9L15 12L22 8L15 4 z M 26.027344 4.25L24.058594 5.5917969L24.058594 7.2890625L25.927734 6.0273438L26.027344 6.0273438L26.027344 12L28 12L28 4.25L26.027344 4.25 z M 26.984375 15.986328 A 1.0001 1.0001 0 0 0 26 17C26 19.220375 24.220375 21 22 21L10 21L10 18L3 22L10 26L10 23L22 23C25.301625 23 28 20.301625 28 17 A 1.0001 1.0001 0 0 0 26.984375 15.986328 z" fill="#3B3B3B" />
</svg>