<?xml version="1.0" encoding="utf-8"?>
<svg xmlns="http://www.w3.org/2000/svg" viewBox="0 0 30 30" width="90" height="90">
  <path d="M6.984375 2.9863281 A 1.0001 1.0001 0 0 0 6 4L6 13.271484 A 2 2 0 0 0 5 15 A 2 2 0 0 0 7 17 A 2 2 0 0 0 9 15 A 2 2 0 0 0 8 13.269531L8 4 A 1.0001 1.0001 0 0 0 6.984375 2.9863281 z M 14.984375 2.9863281 A 1.0001 1.0001 0 0 0 14 4L14 7.2695312 A 2 2 0 0 0 13 9 A 2 2 0 0 0 15 11 A 2 2 0 0 0 17 9 A 2 2 0 0 0 16 7.2714844L16 4 A 1.0001 1.0001 0 0 0 14.984375 2.9863281 z M 22.984375 2.9863281 A 1.0001 1.0001 0 0 0 22 4L22 17.271484 A 2 2 0 0 0 21 19 A 2 2 0 0 0 23 21 A 2 2 0 0 0 25 19 A 2 2 0 0 0 24 17.269531L24 4 A 1.0001 1.0001 0 0 0 22.984375 2.9863281 z M 14 12.859375L14 26 A 1 1 0 0 0 15 27 A 1 1 0 0 0 16 26L16 12.859375C15.679 12.942375 15.347 13 15 13C14.653 13 14.321 12.942375 14 12.859375 z M 6 18.859375L6 26 A 1 1 0 0 0 7 27 A 1 1 0 0 0 8 26L8 18.859375C7.679 18.942375 7.347 19 7 19C6.653 19 6.321 18.942375 6 18.859375 z M 22 22.859375L22 26 A 1 1 0 0 0 23 27 A 1 1 0 0 0 24 26L24 22.859375C23.679 22.942375 23.347 23 23 23C22.653 23 22.321 22.942375 22 22.859375 z" fill="#3B3B3B" />
</svg>