<?xml version="1.0" encoding="utf-8"?>
<svg xmlns="http://www.w3.org/2000/svg" viewBox="0 0 30 30" width="90" height="90">
  <path d="M15 3C9.477 3 5 7.477 5 13C5 18.523 9.477 23 15 23C20.523 23 25 18.523 25 13C25 7.477 20.523 3 15 3 z M 15 8C17.761 8 20 10.239 20 13C20 15.761 17.761 18 15 18C12.239 18 10 15.761 10 13C10 10.239 12.239 8 15 8 z M 15 10C13.343 10 12 11.343 12 13C12 14.657 13.343 16 15 16C16.657 16 18 14.657 18 13C18 12.695 17.941422 12.406859 17.857422 12.130859C17.618422 12.642859 17.102 13 16.5 13C15.672 13 15 12.328 15 11.5C15 10.898 15.357141 10.381578 15.869141 10.142578C15.593141 10.058578 15.305 10 15 10 z M 9.8632812 23.832031L7.5292969 25.119141 A 1 1 0 0 0 7 26 A 1 1 0 0 0 8 27L22 27 A 1 1 0 0 0 23 26 A 1 1 0 0 0 22.470703 25.119141L20.136719 23.832031C18.577719 24.573031 16.841 25 15 25C13.159 25 11.422281 24.572031 9.8632812 23.832031 z" fill="#3B3B3B" />
</svg>