<?xml version="1.0" encoding="utf-8"?>
<svg xmlns="http://www.w3.org/2000/svg" viewBox="0 0 30 30" width="90" height="90">
  <path d="M4 5C2.895 5 2 5.895 2 7L2 23C2 24.105 2.895 25 4 25L26 25C27.105 25 28 24.105 28 23L28 7C28 5.895 27.105 5 26 5L4 5 z M 10 12L12.640625 12C14.041625 12 14.882812 12.738516 14.882812 13.978516C14.882812 14.715516 14.516375 15.387781 13.859375 15.675781L15.056641 18L13.34375 18L12.314453 15.898438L11.525391 15.898438L11.525391 18L10 18L10 12 z M 16 12L20.113281 12L20.113281 13.226562L17.525391 13.226562L17.525391 14.423828L19.957031 14.423828L19.957031 15.548828L17.525391 15.548828L17.525391 16.773438L20.113281 16.773438L20.113281 18L16 18L16 12 z M 23.435547 12C24.868547 12 25.951141 12.954141 25.994141 14.244141L24.603516 14.244141C24.527516 13.626141 24.059547 13.207031 23.435547 13.207031C22.642547 13.207031 22.15625 13.885141 22.15625 14.994141C22.15625 16.106141 22.643453 16.794922 23.439453 16.794922C24.064453 16.794922 24.528328 16.390297 24.611328 15.779297L26 15.779297C25.953 17.082297 24.895547 18 23.435547 18C21.730547 18 20.681641 16.856047 20.681641 14.998047C20.681641 13.138047 21.727547 12 23.435547 12 z M 6 13C7.105 13 8 13.895 8 15C8 16.105 7.105 17 6 17C4.895 17 4 16.105 4 15C4 13.895 4.895 13 6 13 z M 11.527344 13.152344L11.527344 14.822266L12.429688 14.822266C12.991687 14.822266 13.324219 14.511234 13.324219 13.990234C13.323219 13.480234 12.969781 13.152344 12.425781 13.152344L11.527344 13.152344 z" fill="#3B3B3B" />
</svg>