<?xml version="1.0" encoding="utf-8"?>
<svg xmlns="http://www.w3.org/2000/svg" viewBox="0 0 30 30" width="90" height="90">
  <path d="M9.984375 3.9863281 A 1.0001 1.0001 0 0 0 9 5L9 9L5 9 A 1.0001 1.0001 0 1 0 5 11L10 11 A 1.0001 1.0001 0 0 0 11 10L11 5 A 1.0001 1.0001 0 0 0 9.984375 3.9863281 z M 19.984375 3.9863281 A 1.0001 1.0001 0 0 0 19 5L19 10 A 1.0001 1.0001 0 0 0 20 11L25 11 A 1.0001 1.0001 0 1 0 25 9L21 9L21 5 A 1.0001 1.0001 0 0 0 19.984375 3.9863281 z M 5 19 A 1.0001 1.0001 0 1 0 5 21L9 21L9 25 A 1.0001 1.0001 0 1 0 11 25L11 20 A 1.0001 1.0001 0 0 0 10 19L5 19 z M 20 19 A 1.0001 1.0001 0 0 0 19 20L19 25 A 1.0001 1.0001 0 1 0 21 25L21 21L25 21 A 1.0001 1.0001 0 1 0 25 19L20 19 z" fill="#3B3B3B" />
</svg>