<?xml version="1.0" encoding="utf-8"?>
<svg xmlns="http://www.w3.org/2000/svg" width="90" height="90" viewBox="0 0 30 30">
  <path d="M15 3C11.946149 3 9.1595062 4.1553732 7.0390625 6.0390625L5 4L5 10L11 10L8.4550781 7.4550781C10.209519 5.9310235 12.488026 5 15 5C20.534534 5 25 9.4654664 25 15C25 20.534534 20.534534 25 15 25C9.4654664 25 5 20.534534 5 15 A 1.0001 1.0001 0 1 0 3 15C3 21.615466 8.3845336 27 15 27C21.615466 27 27 21.615466 27 15C27 8.3845336 21.615466 3 15 3 z" fill="#3B3B3B" />
</svg>