<?xml version="1.0" encoding="utf-8"?>
<svg xmlns="http://www.w3.org/2000/svg" viewBox="0 0 30 30" width="90" height="90">
  <path d="M4 5C2.895 5 2 5.895 2 7L4 7L4 9L2 9L2 21L4 21L4 23L2 23C2 24.105 2.895 25 4 25L26 25C27.105 25 28 24.105 28 23L26 23L26 21L28 21L28 9L26 9L26 7L28 7C28 5.895 27.105 5 26 5L4 5 z M 6 7L8 7L8 9L6 9L6 7 z M 10 7L12 7L12 9L10 9L10 7 z M 14 7L16 7L16 9L14 9L14 7 z M 18 7L20 7L20 9L18 9L18 7 z M 22 7L24 7L24 9L22 9L22 7 z M 15.048828 11.998047C16.330828 11.998047 17.25 12.657359 17.25 13.568359C17.25 14.168359 16.824547 14.658875 16.185547 14.796875L16.185547 14.871094C16.962547 15.013094 17.482422 15.588453 17.482422 16.314453C17.482422 17.320453 16.500922 18 15.044922 18C13.592922 18 12.619141 17.328172 12.619141 16.326172C12.619141 15.624172 13.127109 15.053094 13.912109 14.871094L13.912109 14.796875C13.273109 14.658875 12.847656 14.168359 12.847656 13.568359C12.847656 12.657359 13.766828 11.998047 15.048828 11.998047 z M 20.792969 12C22.256969 12 23.183594 13.097234 23.183594 14.990234C23.183594 16.868234 22.268969 18 20.792969 18C19.313969 18 18.402344 16.872328 18.402344 14.986328C18.402344 13.100328 19.324969 12 20.792969 12 z M 8.9707031 12.154297L10.978516 12.154297L10.978516 15.794922L11.689453 15.794922L11.689453 16.923828L10.978516 16.923828L10.978516 17.845703L9.609375 17.845703L9.609375 16.923828L6.8164062 16.923828L6.8164062 15.712891C7.3334063 14.722891 7.9887031 13.645297 8.9707031 12.154297 z M 15.048828 12.990234C14.594828 12.990234 14.271484 13.293125 14.271484 13.703125C14.271484 14.113125 14.599828 14.414063 15.048828 14.414062C15.498828 14.414062 15.822266 14.113125 15.822266 13.703125C15.822266 13.293125 15.498828 12.990234 15.048828 12.990234 z M 20.792969 13.111328C20.240969 13.111328 19.873047 13.735328 19.873047 14.986328C19.873047 16.244328 20.240969 16.886719 20.792969 16.886719C21.344969 16.886719 21.716797 16.244328 21.716797 14.986328C21.716797 13.736328 21.344969 13.111328 20.792969 13.111328 z M 9.5742188 13.1875C9.0892188 13.9375 8.7054063 14.583391 8.0664062 15.775391L8.0664062 15.845703L9.6445312 15.845703L9.6445312 13.1875L9.5742188 13.1875 z M 15.048828 15.400391C14.508828 15.400391 14.134766 15.727359 14.134766 16.193359C14.134766 16.662359 14.508828 16.982422 15.048828 16.982422C15.588828 16.982422 15.960938 16.662359 15.960938 16.193359C15.961938 15.728359 15.585828 15.400391 15.048828 15.400391 z M 6 21L8 21L8 23L6 23L6 21 z M 10 21L12 21L12 23L10 23L10 21 z M 14 21L16 21L16 23L14 23L14 21 z M 18 21L20 21L20 23L18 23L18 21 z M 22 21L24 21L24 23L22 23L22 21 z" fill="#3B3B3B" />
</svg>