<?xml version="1.0" encoding="utf-8"?>
<svg xmlns="http://www.w3.org/2000/svg" viewBox="0 0 30 30" width="90" height="90">
  <path d="M21 5L21 8L18.675781 8C16.670448 8 14.796256 9.00408 13.683594 10.671875L12 13.197266L10.316406 10.671875C9.2045791 9.0047337 7.329552 8 5.3242188 8L3 8 A 1.0001 1.0001 0 1 0 3 10L5.3242188 10C6.6628853 10 7.910171 10.668391 8.6523438 11.78125L10.798828 15L8.6523438 18.21875C7.910171 19.331609 6.6628854 20 5.3242188 20L3 20 A 1.0001 1.0001 0 1 0 3 22L5.3242188 22C7.3295521 22 9.2045792 20.995266 10.316406 19.328125L12 16.802734L13.683594 19.328125C14.796256 20.99592 16.670448 22 18.675781 22L21 22L21 25L27 21L21 17L21 20L18.675781 20C17.337115 20 16.090994 19.332955 15.347656 18.21875L13.201172 15L15.347656 11.78125C16.090994 10.667045 17.337115 10 18.675781 10L21 10L21 13L27 9L21 5 z" fill="#3B3B3B" />
</svg>