<?xml version="1.0" encoding="utf-8"?>
<svg xmlns="http://www.w3.org/2000/svg" viewBox="0 0 30 30" width="90" height="90">
  <path d="M5 6C3.895 6 3 6.895 3 8L3 20C3 21.105 3.895 22 5 22L25 22C26.105 22 27 21.105 27 20L27 8C27 6.895 26.105 6 25 6L5 6 z M 6.8222656 10L9.1542969 10L8.6875 12.800781L11.755859 12.800781L12.222656 10L14.554688 10L13.222656 18L10.888672 18L11.421875 14.732422L8.3554688 14.732422L7.8222656 18L5.4882812 18L6.8222656 10 z M 16.955078 10L21.423828 10C23.889828 10 24.821875 10.866812 24.421875 13.132812L24.154297 14.800781C23.821297 17.000781 22.888875 18 20.421875 18L15.689453 18L16.755859 11.867188L16.955078 10 z M 19.154297 11.867188L18.421875 16.134766L20.421875 16.134766C21.288875 16.134766 21.688266 15.666781 21.822266 14.800781L22.089844 13.134766C22.289844 12.067766 21.954297 11.867188 21.154297 11.867188L19.154297 11.867188 z M 10 24 A 1.0001 1.0001 0 1 0 10 26L20 26 A 1.0001 1.0001 0 1 0 20 24L10 24 z" fill="#3B3B3B" />
</svg>